<?xml version="1.0" encoding="utf-8"?>
<!-- Generator: Adobe Illustrator 18.1.1, SVG Export Plug-In . SVG Version: 6.00 Build 0)  -->
<svg version="1.1" id="X" xmlns="http://www.w3.org/2000/svg" xmlns:xlink="http://www.w3.org/1999/xlink" x="0px" y="0px"
	 viewBox="0 0 50 50" enable-background="new 0 0 50 50" xml:space="preserve">
<path fill="#FDFCFF" d="M48.56,7.16L7.16,48.56c-1.56,1.56-4.09,1.56-5.66,0l0,0c-1.56-1.56-1.56-4.09,0-5.66L42.91,1.5
	c1.56-1.56,4.09-1.56,5.66,0l0,0C50.12,3.06,50.12,5.59,48.56,7.16z"/>
<path fill="#FDFCFF" d="M42.91,48.56L1.5,7.16c-1.56-1.56-1.56-4.09,0-5.66l0,0c1.56-1.56,4.09-1.56,5.66,0l41.41,41.41
	c1.56,1.56,1.56,4.09,0,5.66l0,0C47,50.12,44.47,50.12,42.91,48.56z"/>
</svg>
