<svg width="20" height="20" viewBox="0 0 20 20" fill="none" xmlns="http://www.w3.org/2000/svg">
<path fill-rule="evenodd" clip-rule="evenodd" d="M11 2C11 0.895431 11.8954 0 13 0H14.25V2L13 2V4H11V2ZM18 2H16.75V0H18C19.1046 0 20 0.895431 20 2V4H18V2ZM13 8V10H14.25V12H13C11.8954 12 11 11.1046 11 10V8H13ZM18 10V8H20V10C20 11.1046 19.1046 12 18 12H16.75V10H18Z" fill="#FAF7FF"/>
<path fill-rule="evenodd" clip-rule="evenodd" d="M11 16C11 14.8954 11.8954 14 13 14H18C19.1046 14 20 14.8954 20 16V18C20 19.1046 19.1046 20 18 20H13C11.8954 20 11 19.1046 11 18V16ZM18 16H13V18H18V16Z" fill="#FAF7FF"/>
<path fill-rule="evenodd" clip-rule="evenodd" d="M0 3C0 1.34315 1.34315 0 3 0H6C7.65685 0 9 1.34315 9 3V17C9 18.6569 7.65685 20 6 20H3C1.34315 20 0 18.6569 0 17V3ZM3 2C2.44772 2 2 2.44772 2 3V17C2 17.5523 2.44772 18 3 18H6C6.55228 18 7 17.5523 7 17V3C7 2.44772 6.55228 2 6 2H3Z" fill="#FAF7FF"/>
</svg>
