<svg width="40" height="40" viewBox="0 0 40 40" fill="none" xmlns="http://www.w3.org/2000/svg">
<circle cx="20" cy="20" r="20" fill="#FAF7FF"/>
<path d="M20.3578 26.111C23.9435 26.111 26.8502 23.2043 26.8502 19.6186C26.8502 16.033 23.9435 13.1262 20.3578 13.1262C16.7722 13.1262 13.8654 16.033 13.8654 19.6186C13.8654 23.2043 16.7722 26.111 20.3578 26.111Z" fill="#A0616A"/>
<path d="M14.9841 27.5649L16.3375 24.1062L23.3299 23.0536L24.0812 30.7097L17.0136 30.8601L14.9841 27.5649Z" fill="#A0616A"/>
<path d="M26.9131 20.8165C26.8289 21.1541 26.6585 21.9579 26.3925 21.9618C26.1752 21.965 25.9672 18.478 26.1843 17.9012C26.4337 17.2386 25.7784 16.4004 25.2847 15.9702C24.3972 15.1965 22.4271 16.8577 20.4238 16.1052C20.3706 16.0853 20.3812 16.0875 19.7486 15.8351C17.802 15.0585 17.6997 15.0361 17.5882 15.025C16.6445 14.9316 15.4929 15.7038 15.0227 16.6453C14.5338 17.624 14.9422 18.4634 14.4825 20.8312C14.429 21.1071 14.3448 21.5005 14.2125 21.5063C13.9705 21.5168 13.7343 20.2245 13.6724 19.886C13.4131 18.4678 13.1632 17.1005 13.6724 15.5651C13.7279 15.3976 14.0702 14.776 14.7526 13.5397C15.7356 11.7586 16.2301 10.8647 16.3729 10.7041C17.3976 9.55175 19.2628 8.50054 20.8288 8.94874C21.6203 9.17528 21.4784 9.53948 22.4492 9.89393C24.1791 10.5256 25.6826 9.7531 25.9599 10.299C26.1068 10.5882 25.6958 10.8266 25.6898 11.3792C25.6796 12.3275 26.8789 12.6015 27.5802 13.5397C27.9572 14.044 28.6026 14.0495 26.9131 20.8165L26.9131 20.8165V20.8165Z" fill="#2F2E41"/>
<path d="M34.9565 33.279C34.6948 33.573 34.4234 33.8609 34.1422 34.1421C30.3647 37.9195 25.3422 40 20 40C15.3828 40 11.0046 38.4459 7.46245 35.585C7.46019 35.5835 7.45869 35.582 7.45645 35.5797C6.98653 35.2008 6.53163 34.7978 6.09253 34.3722C6.10079 34.306 6.10982 34.2406 6.11959 34.1759C6.18125 33.7398 6.24968 33.324 6.32635 32.9413C6.95418 29.8045 15.2151 26.5113 15.4301 26.4255C15.4331 26.4248 15.4346 26.4241 15.4346 26.4241C15.4346 26.4241 16.4978 30.3429 21.0534 30.2925C24.1564 30.2587 23.5549 26.4241 23.5549 26.4241C23.5549 26.4241 23.5925 26.4316 23.6632 26.4466C24.5594 26.6369 30.782 28.0038 33.2369 29.8692C33.985 30.4376 34.5218 31.6482 34.9076 33.0917C34.9241 33.1534 34.9399 33.2165 34.9565 33.279Z" fill="#21395E"/>
</svg>

