<svg width="20" height="20" viewBox="0 0 20 20" fill="none" xmlns="http://www.w3.org/2000/svg">
<path fill-rule="evenodd" clip-rule="evenodd" d="M0.5 19.0476C0.5 18.5216 0.926395 18.0952 1.45238 18.0952H18.5952C19.1212 18.0952 19.5476 18.5216 19.5476 19.0476C19.5476 19.5736 19.1212 20 18.5952 20H1.45238C0.926395 20 0.5 19.5736 0.5 19.0476Z" fill="#FAF7FF"/>
<path fill-rule="evenodd" clip-rule="evenodd" d="M10.0238 1.90476C6.34192 1.90476 3.35715 4.88953 3.35715 8.57143C3.35715 12.2533 6.34192 15.2381 10.0238 15.2381C13.7057 15.2381 16.6905 12.2533 16.6905 8.57143C16.6905 4.88953 13.7057 1.90476 10.0238 1.90476ZM1.45239 8.57143C1.45239 3.83756 5.28995 0 10.0238 0C14.7577 0 18.5952 3.83756 18.5952 8.57143C18.5952 13.3053 14.7577 17.1429 10.0238 17.1429C5.28995 17.1429 1.45239 13.3053 1.45239 8.57143Z" fill="#FAF7FF"/>
<path d="M6.78004 10.1495C6.59845 10.1495 6.4448 10.0937 6.31909 9.98191C6.20036 9.86318 6.14099 9.71651 6.14099 9.54191C6.14099 9.3673 6.20036 9.22413 6.31909 9.11238C6.4448 9.00064 6.59845 8.94476 6.78004 8.94476H9.9648C10.1464 8.94476 10.2965 9.00064 10.4153 9.11238C10.541 9.22413 10.6038 9.3673 10.6038 9.54191C10.6038 9.71651 10.541 9.86318 10.4153 9.98191C10.2965 10.0937 10.1464 10.1495 9.9648 10.1495H6.78004ZM6.78004 8.55714C6.59845 8.55714 6.4448 8.50127 6.31909 8.38953C6.20036 8.2708 6.14099 8.12413 6.14099 7.94953C6.14099 7.77492 6.20036 7.63175 6.31909 7.52C6.4448 7.40826 6.59845 7.35238 6.78004 7.35238H9.9648C10.1464 7.35238 10.2965 7.40826 10.4153 7.52C10.541 7.63175 10.6038 7.77492 10.6038 7.94953C10.6038 8.12413 10.541 8.2708 10.4153 8.38953C10.2965 8.50127 10.1464 8.55714 9.9648 8.55714H6.78004ZM10.6143 12.4857C10.1394 12.4857 9.68893 12.4054 9.2629 12.2448C8.83686 12.0841 8.45623 11.8467 8.12099 11.5324C7.79274 11.2181 7.53083 10.827 7.33528 10.359C7.14671 9.88413 7.05242 9.33587 7.05242 8.71429C7.05242 8.17651 7.13972 7.68064 7.31432 7.22667C7.48893 6.7727 7.73686 6.38159 8.05813 6.05333C8.3794 5.7181 8.75655 5.45968 9.18956 5.2781C9.62258 5.08953 10.0975 4.99524 10.6143 4.99524C10.8797 4.99524 11.1416 5.03016 11.4 5.1C11.6654 5.16984 11.9099 5.27111 12.1334 5.40381C12.315 5.4946 12.4197 5.63778 12.4477 5.83333C12.4826 6.02889 12.4337 6.20699 12.301 6.36762C12.2102 6.49333 12.0915 6.56318 11.9448 6.57714C11.8051 6.59111 11.6619 6.56318 11.5153 6.49333C11.3826 6.41651 11.2394 6.35714 11.0858 6.31524C10.9321 6.27333 10.775 6.25238 10.6143 6.25238C10.1604 6.25238 9.75877 6.35714 9.40956 6.56667C9.06036 6.77619 8.78798 7.06603 8.59242 7.43619C8.40385 7.79937 8.30956 8.2254 8.30956 8.71429C8.30956 9.28 8.41083 9.75143 8.61337 10.1286C8.8229 10.4987 9.10226 10.7746 9.45147 10.9562C9.80067 11.1378 10.1883 11.2286 10.6143 11.2286C10.775 11.2286 10.9286 11.2111 11.0753 11.1762C11.2289 11.1413 11.3756 11.0784 11.5153 10.9876C11.6619 10.9178 11.8051 10.8933 11.9448 10.9143C12.0915 10.9352 12.2137 11.0086 12.3115 11.1343C12.4512 11.3089 12.5 11.4905 12.4581 11.679C12.4232 11.8606 12.3185 11.9933 12.1438 12.0771C11.9832 12.1679 11.8191 12.2448 11.6515 12.3076C11.4838 12.3635 11.3127 12.4054 11.1381 12.4333C10.9705 12.4683 10.7959 12.4857 10.6143 12.4857Z" fill="#FAF7FF"/>
</svg>

