<svg width="20" height="20" viewBox="0 0 20 20" fill="none" xmlns="http://www.w3.org/2000/svg">
<path fill-rule="evenodd" clip-rule="evenodd" d="M9.66002 2.0355L2.26478 8.38576C1.8424 8.74846 1.20596 8.70007 0.843265 8.27769C0.480567 7.85531 0.528951 7.21887 0.951334 6.85618L8.38399 0.473786L8.39768 0.462834C9.16907 -0.154278 10.3374 -0.154278 11.1088 0.462834L11.1282 0.478354L18.81 7.27075C20.25 8.55073 19.2805 10.8065 17.4952 10.8065H16.6102C16.6096 10.8066 16.6088 10.8069 16.6077 10.8074C16.6024 10.8097 16.5938 10.8148 16.585 10.8237C16.5761 10.8326 16.571 10.8411 16.5687 10.8464C16.5682 10.8475 16.5679 10.8484 16.5677 10.8489V17.9435C16.5677 19.0648 15.6325 20 14.5113 20H4.99515C3.8739 20 2.9387 19.0648 2.9387 17.9435V10.9274C2.9387 10.3707 3.39003 9.91936 3.94677 9.91936C4.50351 9.91936 4.95483 10.3707 4.95483 10.9274V17.9414C4.95502 17.942 4.95532 17.9428 4.95581 17.9439C4.95811 17.9492 4.96322 17.9578 4.97208 17.9666C4.98093 17.9755 4.98949 17.9806 4.99479 17.9829C4.99591 17.9834 4.99674 17.9837 4.99729 17.9839H14.5091C14.5097 17.9837 14.5105 17.9834 14.5117 17.9829C14.517 17.9806 14.5255 17.9755 14.5344 17.9666C14.5432 17.9578 14.5483 17.9492 14.5506 17.9439C14.5511 17.9428 14.5514 17.942 14.5516 17.9414V10.8468C14.5516 9.72552 15.4868 8.79032 16.6081 8.79032H17.482C17.4822 8.78998 17.4823 8.78962 17.4825 8.78926C17.4799 8.78643 17.4763 8.78271 17.4713 8.77822C17.471 8.77802 17.4708 8.77783 17.4706 8.77763L9.8443 2.03438C9.83309 2.02866 9.80296 2.01613 9.75322 2.01613C9.69991 2.01613 9.66913 2.03053 9.66002 2.0355Z" fill="#FAF7FF"/>
</svg>

