<svg width="0" height="0" viewBox="0 0 225 306" fill="none" xmlns="http://www.w3.org/2000/svg">
<rect x="91.8" y="168.3" width="40.8" height="137.7" rx="20.4" fill="url(#paint0_linear_151_1876)"/>
<rect x="183.6" y="61.2" width="40.8" height="244.8" rx="20.4" fill="url(#paint1_linear_151_1876)"/>
<circle cx="204" cy="20.4" r="20.4" fill="url(#paint2_linear_151_1876)"/>
<circle cx="112.2" cy="127.5" r="20.4" fill="url(#paint3_linear_151_1876)"/>
<circle cx="20.4" cy="51.0001" r="20.4" fill="url(#paint4_linear_151_1876)"/>
<rect y="91.8" width="40.8" height="214.2" rx="20.4" fill="url(#paint5_linear_151_1876)"/>
<path fill-rule="evenodd" clip-rule="evenodd" d="M108.935 131.418L17.1353 54.9181L23.6652 47.0823L115.465 123.582L108.935 131.418Z" fill="url(#paint6_linear_151_1876)"/>
<path fill-rule="evenodd" clip-rule="evenodd" d="M108.328 124.181L200.128 17.0811L207.872 23.7191L116.072 130.819L108.328 124.181Z" fill="url(#paint7_linear_151_1876)"/>
<defs>
<linearGradient id="paint0_linear_151_1876" x1="112.2" y1="168.3" x2="112.2" y2="306" gradientUnits="userSpaceOnUse">
<stop stop-color="white"/>
<stop offset="1" stop-color="#FAF7FF"/>
</linearGradient>
<linearGradient id="paint1_linear_151_1876" x1="204" y1="61.2" x2="204" y2="306" gradientUnits="userSpaceOnUse">
<stop stop-color="white"/>
<stop offset="1" stop-color="#FAF7FF"/>
</linearGradient>
<linearGradient id="paint2_linear_151_1876" x1="204" y1="0" x2="204" y2="40.8" gradientUnits="userSpaceOnUse">
<stop stop-color="white"/>
<stop offset="1" stop-color="#FAF7FF"/>
</linearGradient>
<linearGradient id="paint3_linear_151_1876" x1="112.2" y1="107.1" x2="112.2" y2="147.9" gradientUnits="userSpaceOnUse">
<stop stop-color="white"/>
<stop offset="1" stop-color="#FAF7FF"/>
</linearGradient>
<linearGradient id="paint4_linear_151_1876" x1="20.4" y1="30.6001" x2="20.4" y2="71.4001" gradientUnits="userSpaceOnUse">
<stop stop-color="white"/>
<stop offset="1" stop-color="#FAF7FF"/>
</linearGradient>
<linearGradient id="paint5_linear_151_1876" x1="20.4" y1="91.8" x2="20.4" y2="306" gradientUnits="userSpaceOnUse">
<stop stop-color="white"/>
<stop offset="1" stop-color="#FAF7FF"/>
</linearGradient>
<linearGradient id="paint6_linear_151_1876" x1="66.3003" y1="51.0002" x2="66.3003" y2="127.5" gradientUnits="userSpaceOnUse">
<stop stop-color="#FAF7FF"/>
<stop offset="1" stop-color="#FAF7FF" stop-opacity="0"/>
</linearGradient>
<linearGradient id="paint7_linear_151_1876" x1="158.1" y1="20.4001" x2="158.1" y2="127.5" gradientUnits="userSpaceOnUse">
<stop stop-color="#FAF7FF"/>
<stop offset="1" stop-color="#FAF7FF" stop-opacity="0"/>
</linearGradient>
</defs>
</svg>

