<?xml version="1.0" encoding="utf-8"?>
<!-- Generator: Adobe Illustrator 18.1.1, SVG Export Plug-In . SVG Version: 6.00 Build 0)  -->
<svg version="1.1" id="Warstwa_1" xmlns="http://www.w3.org/2000/svg" xmlns:xlink="http://www.w3.org/1999/xlink" x="0px" y="0px"
	 viewBox="0 0 23 23" enable-background="new 0 0 23 23" xml:space="preserve">
<path fill="#FAF7FF" d="M12.58,0.46c0.57,0.6,0.56,1.55-0.04,2.12l-8.92,8.57l8.96,9.3c0.57,0.6,0.56,1.55-0.04,2.12
	c-0.6,0.57-1.55,0.56-2.12-0.04l-10-10.38C0.14,11.87-0.01,11.48,0,11.09c0.01-0.4,0.17-0.78,0.46-1.05l10-9.62
	C11.06-0.16,12.01-0.14,12.58,0.46z"/>
<path fill="#FAF7FF" d="M22.58,0.46c0.57,0.6,0.56,1.55-0.04,2.12l-8.92,8.57l8.96,9.3c0.57,0.6,0.56,1.55-0.04,2.12
	c-0.6,0.57-1.55,0.56-2.12-0.04l-10-10.38c-0.28-0.29-0.43-0.67-0.42-1.07c0.01-0.4,0.17-0.78,0.46-1.05l10-9.62
	C21.06-0.16,22.01-0.14,22.58,0.46z"/>
</svg>

