<svg width="132" height="132" viewBox="0 0 132 132" fill="none" xmlns="http://www.w3.org/2000/svg">
<path fill-rule="evenodd" clip-rule="evenodd" d="M47 5H15C9.47715 5 5 9.47715 5 15V47C5 52.5228 9.47715 57 15 57H47C52.5228 57 57 52.5228 57 47V15C57 9.47715 52.5228 5 47 5ZM15 0C6.71573 0 0 6.71573 0 15V47C0 55.2843 6.71573 62 15 62H47C55.2843 62 62 55.2843 62 47V15C62 6.71573 55.2843 0 47 0H15Z" fill="#FAF7FF"/>
<path fill-rule="evenodd" clip-rule="evenodd" d="M47 75H15C9.47715 75 5 79.4772 5 85V117C5 122.523 9.47715 127 15 127H47C52.5228 127 57 122.523 57 117V85C57 79.4772 52.5228 75 47 75ZM15 70C6.71573 70 0 76.7157 0 85V117C0 125.284 6.71573 132 15 132H47C55.2843 132 62 125.284 62 117V85C62 76.7157 55.2843 70 47 70H15Z" fill="#FAF7FF"/>
<path fill-rule="evenodd" clip-rule="evenodd" d="M117 5H85C79.4772 5 75 9.47715 75 15V47C75 52.5228 79.4772 57 85 57H117C122.523 57 127 52.5228 127 47V15C127 9.47715 122.523 5 117 5ZM85 0C76.7157 0 70 6.71573 70 15V47C70 55.2843 76.7157 62 85 62H117C125.284 62 132 55.2843 132 47V15C132 6.71573 125.284 0 117 0H85Z" fill="#FAF7FF"/>
<path fill-rule="evenodd" clip-rule="evenodd" d="M70 109V117C70 125.284 76.7157 132 85 132H93V122H85C82.2386 122 80 119.761 80 117V109H70ZM70 93H80V85C80 82.2386 82.2386 80 85 80H93V70H85C76.7157 70 70 76.7157 70 85V93ZM109 70V80H117C119.761 80 122 82.2386 122 85V93H132V85C132 76.7157 125.284 70 117 70H109ZM132 109H122V117C122 119.761 119.761 122 117 122H109V132H117C125.284 132 132 125.284 132 117V109Z" fill="#FAF7FF"/>
</svg>
