<svg width="20" height="20" viewBox="0 0 20 20" fill="none" xmlns="http://www.w3.org/2000/svg">
<path fill-rule="evenodd" clip-rule="evenodd" d="M4 6C4 2.68629 6.68629 0 10 0C13.3137 0 16 2.68629 16 6V14C16 17.3137 13.3137 20 10 20C6.68629 20 4 17.3137 4 14V6ZM10 2C7.79086 2 6 3.79086 6 6V14C6 16.2091 7.79086 18 10 18C12.2091 18 14 16.2091 14 14V6C14 3.79086 12.2091 2 10 2Z" fill="#FAF7FF"/>
<path fill-rule="evenodd" clip-rule="evenodd" d="M0 5C0 4.44772 0.447715 4 1 4H5C5.55228 4 6 4.44772 6 5C6 5.55228 5.55228 6 5 6H1C0.447715 6 0 5.55228 0 5ZM14 5C14 4.44772 14.4477 4 15 4H19C19.5523 4 20 4.44772 20 5C20 5.55228 19.5523 6 19 6H15C14.4477 6 14 5.55228 14 5ZM0 10C0 9.44772 0.447715 9 1 9H5C5.55228 9 6 9.44772 6 10C6 10.5523 5.55228 11 5 11H1C0.447715 11 0 10.5523 0 10ZM14 10C14 9.44772 14.4477 9 15 9H19C19.5523 9 20 9.44772 20 10C20 10.5523 19.5523 11 19 11H15C14.4477 11 14 10.5523 14 10ZM0 15C0 14.4477 0.447715 14 1 14H5C5.55228 14 6 14.4477 6 15C6 15.5523 5.55228 16 5 16H1C0.447715 16 0 15.5523 0 15ZM14 15C14 14.4477 14.4477 14 15 14H19C19.5523 14 20 14.4477 20 15C20 15.5523 19.5523 16 19 16H15C14.4477 16 14 15.5523 14 15Z" fill="#FAF7FF"/>
</svg>

