<svg width="132" height="132" viewBox="0 0 132 132" fill="none" xmlns="http://www.w3.org/2000/svg">
<path d="M84.75 94.125H94.125L70.6875 37.875H61.3125L37.875 94.125H47.25L53.0625 80.0625H78.9844L84.75 94.125ZM56.9531 70.6875L65.4844 49.9688H66.6562L75.375 70.6875H56.9531Z" fill="#FAF7FF"/>
<path d="M47.25 122.25H19.125C16.6386 122.25 14.254 121.262 12.4959 119.504C10.7377 117.746 9.75 115.361 9.75 112.875V19.125C9.75 16.6386 10.7377 14.254 12.4959 12.4959C14.254 10.7377 16.6386 9.75 19.125 9.75H112.875C115.361 9.75 117.746 10.7377 119.504 12.4959C121.262 14.254 122.25 16.6386 122.25 19.125V70.6875H112.875V19.125H19.125V112.875H47.25V122.25Z" fill="#FAF7FF"/>
<path d="M98.8125 118.406L86.6719 106.266L80.0625 112.875L98.8125 131.625L131.625 98.8125L125.016 92.2031L98.8125 118.406Z" fill="#FAF7FF"/>
</svg>
