<svg width="132" height="132" viewBox="0 0 132 132" fill="none" xmlns="http://www.w3.org/2000/svg">
<path d="M123.017 67.1137C123.65 66.1787 123.65 64.952 123.017 64.0144C111.044 46.472 89.2996 36 64.8439 36C40.3386 36 19.2406 46.5186 8.40821 64.1213C7.86393 65.0039 7.86393 66.1259 8.40821 67.009C19.2406 84.62 40.3386 95.1334 64.8439 95.1334C89.2943 95.1334 111.044 84.6587 123.017 67.1137ZM64.8439 89.6334C42.9513 89.6334 24.0999 80.6684 14.0129 65.568C24.0947 50.4676 42.9513 41.5053 64.8439 41.5053C86.7396 41.5053 106.215 50.4646 117.377 65.568C106.215 80.671 86.7392 89.6334 64.8439 89.6334Z" fill="#FAF7FF"/>
<path d="M65.7459 49.068C56.6463 49.068 49.2459 56.4684 49.2459 65.568C49.2459 74.6676 56.6463 82.068 65.7459 82.068C74.8456 82.068 82.2486 74.6676 82.2486 65.568C82.2486 56.4684 74.8456 49.068 65.7459 49.068ZM65.7459 76.568C59.6797 76.568 54.7459 71.6343 54.7459 65.568C54.7459 59.5017 59.6797 54.568 65.7459 54.568C71.8122 54.568 76.7486 59.5017 76.7486 65.568C76.7486 71.6343 71.8122 76.568 65.7459 76.568Z" fill="#FAF7FF"/>
<path fill-rule="evenodd" clip-rule="evenodd" d="M19.9535 9.2093C14.0196 9.2093 9.2093 14.0196 9.2093 19.9535V42.9767C9.2093 45.5198 7.14773 47.5814 4.60465 47.5814C2.06157 47.5814 0 45.5198 0 42.9767V19.9535C0 8.93348 8.93348 0 19.9535 0H42.9767C45.5198 0 47.5814 2.06157 47.5814 4.60465C47.5814 7.14773 45.5198 9.2093 42.9767 9.2093H19.9535ZM84.4186 4.60465C84.4186 2.06157 86.4802 0 89.0233 0H112.047C123.067 0 132 8.93348 132 19.9535V42.9767C132 45.5198 129.938 47.5814 127.395 47.5814C124.852 47.5814 122.791 45.5198 122.791 42.9767V19.9535C122.791 14.0196 117.98 9.2093 112.047 9.2093H89.0233C86.4802 9.2093 84.4186 7.14773 84.4186 4.60465ZM4.60465 84.4186C7.14773 84.4186 9.2093 86.4802 9.2093 89.0233V112.047C9.2093 117.98 14.0196 122.791 19.9535 122.791H42.9767C45.5198 122.791 47.5814 124.852 47.5814 127.395C47.5814 129.938 45.5198 132 42.9767 132H19.9535C8.93348 132 0 123.067 0 112.047V89.0233C0 86.4802 2.06157 84.4186 4.60465 84.4186ZM127.395 84.4186C129.938 84.4186 132 86.4802 132 89.0233V112.047C132 123.067 123.067 132 112.047 132H89.0233C86.4802 132 84.4186 129.938 84.4186 127.395C84.4186 124.852 86.4802 122.791 89.0233 122.791H112.047C117.98 122.791 122.791 117.98 122.791 112.047V89.0233C122.791 86.4802 124.852 84.4186 127.395 84.4186Z" fill="#FAF7FF"/>
</svg>
