<svg width="23" height="22" viewBox="0 0 23 22" fill="none" xmlns="http://www.w3.org/2000/svg">
<path d="M22.6807 11.1856C22.7904 11.0298 22.7904 10.8253 22.6807 10.6691C20.6055 7.74533 16.8366 6 12.5978 6C8.35038 6 4.69355 7.75311 2.81602 10.6869C2.72169 10.834 2.72169 11.021 2.81602 11.1682C4.69355 14.1033 8.35038 15.8556 12.5978 15.8556C16.8357 15.8556 20.6055 14.1098 22.6807 11.1856ZM12.5978 14.9389C8.80323 14.9389 5.5358 13.4447 3.78747 10.928C5.53489 8.41127 8.80323 6.91755 12.5978 6.91755C16.3929 6.91755 19.7685 8.41076 21.7032 10.928C19.7685 13.4452 16.3928 14.9389 12.5978 14.9389Z" fill="#FAF7FF"/>
<path d="M12.7543 8.17798C11.1771 8.17798 9.89445 9.41137 9.89445 10.928C9.89445 12.4446 11.1771 13.678 12.7543 13.678C14.3315 13.678 15.6147 12.4446 15.6147 10.928C15.6147 9.41137 14.3315 8.17798 12.7543 8.17798ZM12.7543 12.7613C11.7029 12.7613 10.8477 11.939 10.8477 10.928C10.8477 9.91693 11.7029 9.09465 12.7543 9.09465C13.8058 9.09465 14.6614 9.91693 14.6614 10.928C14.6614 11.939 13.8058 12.7613 12.7543 12.7613Z" fill="#FAF7FF"/>
<path fill-rule="evenodd" clip-rule="evenodd" d="M3.32558 1.53488C2.33661 1.53488 1.53488 2.33661 1.53488 3.32558V7.16279C1.53488 7.58664 1.19129 7.93023 0.767442 7.93023C0.343595 7.93023 0 7.58664 0 7.16279V3.32558C0 1.48891 1.48891 0 3.32558 0H7.16279C7.58664 0 7.93023 0.343595 7.93023 0.767442C7.93023 1.19129 7.58664 1.53488 7.16279 1.53488H3.32558ZM14.0698 0.767442C14.0698 0.343595 14.4134 0 14.8372 0H18.6744C20.5111 0 22 1.48891 22 3.32558V7.16279C22 7.58664 21.6564 7.93023 21.2326 7.93023C20.8087 7.93023 20.4651 7.58664 20.4651 7.16279V3.32558C20.4651 2.33661 19.6634 1.53488 18.6744 1.53488H14.8372C14.4134 1.53488 14.0698 1.19129 14.0698 0.767442ZM0.767442 14.0698C1.19129 14.0698 1.53488 14.4134 1.53488 14.8372V18.6744C1.53488 19.6634 2.33661 20.4651 3.32558 20.4651H7.16279C7.58664 20.4651 7.93023 20.8087 7.93023 21.2326C7.93023 21.6564 7.58664 22 7.16279 22H3.32558C1.48891 22 0 20.5111 0 18.6744V14.8372C0 14.4134 0.343595 14.0698 0.767442 14.0698ZM21.2326 14.0698C21.6564 14.0698 22 14.4134 22 14.8372V18.6744C22 20.5111 20.5111 22 18.6744 22H14.8372C14.4134 22 14.0698 21.6564 14.0698 21.2326C14.0698 20.8087 14.4134 20.4651 14.8372 20.4651H18.6744C19.6634 20.4651 20.4651 19.6634 20.4651 18.6744V14.8372C20.4651 14.4134 20.8087 14.0698 21.2326 14.0698Z" fill="#FAF7FF"/>
</svg>
