<svg width="132" height="132" viewBox="0 0 132 132" fill="none" xmlns="http://www.w3.org/2000/svg">
<path d="M58.2185 40.5648H41.8999V24.3298C41.8999 23.0612 40.8724 22.0324 39.6025 22.0324C38.3327 22.0324 37.3054 23.0612 37.3054 24.3298V40.5648H21.4626C20.1928 40.5648 19.1655 41.5934 19.1655 42.8622C19.1655 44.1311 20.193 45.1596 21.4626 45.1596H37.3056V61.0857C37.3056 62.3546 38.3332 63.3831 39.6028 63.3831C40.8724 63.3831 41.9002 62.3548 41.9002 61.0857V45.1591H58.2188C59.4886 45.1591 60.5162 44.1306 60.5162 42.8617C60.5162 41.5929 59.4884 40.5648 58.2185 40.5648Z" fill="#FAF7FF"/>
<path d="M111.055 40.5646H74.2993C73.0294 40.5646 72.0019 41.5931 72.0019 42.862C72.0019 44.1308 73.0294 45.1593 74.2993 45.1593H111.055C112.325 45.1593 113.353 44.1308 113.353 42.862C113.353 41.5931 112.325 40.5646 111.055 40.5646Z" fill="#FAF7FF"/>
<path d="M54.1244 101.985L42.527 90.388L54.1244 78.7903C55.0218 77.8929 55.0218 76.4394 54.1244 75.5422C53.227 74.6448 51.7732 74.6448 50.8758 75.5422L39.2784 87.1394L27.681 75.5422C26.7836 74.6448 25.3299 74.6448 24.4324 75.5422C23.535 76.4397 23.535 77.8931 24.4324 78.7903L36.0298 90.388L24.4324 101.985C23.535 102.883 23.535 104.336 24.4324 105.233C24.8811 105.682 25.4689 105.907 26.0567 105.907C26.6445 105.907 27.2323 105.682 27.681 105.233L39.2784 93.6361L50.8758 105.233C51.3245 105.682 51.9123 105.907 52.5001 105.907C53.0879 105.907 53.6757 105.682 54.1244 105.233C55.0218 104.336 55.0218 102.883 54.1244 101.985Z" fill="#FAF7FF"/>
<path d="M111.055 81.915H74.2993C73.0294 81.915 72.0019 82.9435 72.0019 84.2124C72.0019 85.4812 73.0294 86.5095 74.2993 86.5095H111.055C112.325 86.5095 113.353 85.481 113.353 84.2124C113.353 82.9437 112.325 81.915 111.055 81.915Z" fill="#FAF7FF"/>
<path d="M111.055 95.6986H74.2993C73.0294 95.6986 72.0019 96.7272 72.0019 97.9958C72.0019 99.2644 73.0294 100.293 74.2993 100.293H111.055C112.325 100.293 113.353 99.2646 113.353 97.9958C113.353 96.7269 112.325 95.6986 111.055 95.6986Z" fill="#FAF7FF"/>
<path fill-rule="evenodd" clip-rule="evenodd" d="M0 19.9535C0 8.93348 8.93348 0 19.9535 0H112.047C123.067 0 132 8.93348 132 19.9535V112.047C132 123.067 123.067 132 112.047 132H19.9535C8.93348 132 0 123.067 0 112.047V19.9535ZM19.9535 9.2093C14.0196 9.2093 9.2093 14.0196 9.2093 19.9535V112.047C9.2093 117.98 14.0196 122.791 19.9535 122.791H112.047C117.98 122.791 122.791 117.98 122.791 112.047V19.9535C122.791 14.0196 117.98 9.2093 112.047 9.2093H19.9535Z" fill="#FAF7FF"/>
</svg>
