<svg width="232" height="80" viewBox="0 0 232 80" fill="none" xmlns="http://www.w3.org/2000/svg">
<path d="M68.6 32.32C67.1067 32.32 65.7627 32.1387 64.568 31.776C63.3733 31.392 62.232 30.7307 61.144 29.792C60.8667 29.5573 60.6533 29.2907 60.504 28.992C60.3547 28.6933 60.28 28.3947 60.28 28.096C60.28 27.6053 60.4507 27.1787 60.792 26.816C61.1547 26.432 61.6027 26.24 62.136 26.24C62.5413 26.24 62.904 26.368 63.224 26.624C64.0347 27.2853 64.8347 27.7867 65.624 28.128C66.4347 28.4693 67.4267 28.64 68.6 28.64C69.3893 28.64 70.1147 28.5227 70.776 28.288C71.4373 28.032 71.9707 27.7013 72.376 27.296C72.7813 26.8693 72.984 26.3893 72.984 25.856C72.984 25.216 72.792 24.672 72.408 24.224C72.024 23.776 71.4373 23.4027 70.648 23.104C69.8587 22.784 68.856 22.5387 67.64 22.368C66.488 22.1973 65.4747 21.9413 64.6 21.6C63.7253 21.2373 62.9893 20.7893 62.392 20.256C61.816 19.7013 61.3787 19.0613 61.08 18.336C60.7813 17.5893 60.632 16.7573 60.632 15.84C60.632 14.4533 60.984 13.2693 61.688 12.288C62.4133 11.3067 63.384 10.56 64.6 10.048C65.816 9.536 67.16 9.28 68.632 9.28C70.0187 9.28 71.2987 9.49333 72.472 9.92C73.6667 10.3253 74.6373 10.848 75.384 11.488C76.0027 11.9787 76.312 12.544 76.312 13.184C76.312 13.6533 76.1307 14.08 75.768 14.464C75.4053 14.848 74.9787 15.04 74.488 15.04C74.168 15.04 73.88 14.944 73.624 14.752C73.2827 14.4533 72.824 14.176 72.248 13.92C71.672 13.6427 71.064 13.4187 70.424 13.248C69.784 13.056 69.1867 12.96 68.632 12.96C67.7147 12.96 66.936 13.0773 66.296 13.312C65.6773 13.5467 65.208 13.8667 64.888 14.272C64.568 14.6773 64.408 15.1467 64.408 15.68C64.408 16.32 64.5893 16.8533 64.952 17.28C65.336 17.6853 65.88 18.016 66.584 18.272C67.288 18.5067 68.1307 18.72 69.112 18.912C70.392 19.1467 71.512 19.424 72.472 19.744C73.4533 20.064 74.264 20.48 74.904 20.992C75.544 21.4827 76.024 22.112 76.344 22.88C76.664 23.6267 76.824 24.544 76.824 25.632C76.824 27.0187 76.44 28.2133 75.672 29.216C74.904 30.2187 73.8907 30.9867 72.632 31.52C71.3947 32.0533 70.0507 32.32 68.6 32.32ZM80.3658 15.2H87.9498C88.4618 15.2 88.8884 15.3707 89.2298 15.712C89.5711 16.0533 89.7418 16.48 89.7418 16.992C89.7418 17.4827 89.5711 17.8987 89.2298 18.24C88.8884 18.56 88.4618 18.72 87.9498 18.72H80.3658C79.8538 18.72 79.4271 18.5493 79.0858 18.208C78.7444 17.8667 78.5738 17.44 78.5738 16.928C78.5738 16.4373 78.7444 16.032 79.0858 15.712C79.4271 15.3707 79.8538 15.2 80.3658 15.2ZM83.7898 11.2C84.3444 11.2 84.7924 11.392 85.1338 11.776C85.4964 12.1387 85.6778 12.5973 85.6778 13.152V27.392C85.6778 27.6907 85.7311 27.936 85.8378 28.128C85.9658 28.32 86.1258 28.4587 86.3177 28.544C86.5311 28.6293 86.7551 28.672 86.9898 28.672C87.2458 28.672 87.4804 28.6293 87.6938 28.544C87.9071 28.4373 88.1524 28.384 88.4298 28.384C88.7284 28.384 88.9951 28.5227 89.2298 28.8C89.4858 29.0773 89.6138 29.4613 89.6138 29.952C89.6138 30.5493 89.2831 31.04 88.6218 31.424C87.9818 31.808 87.2884 32 86.5417 32C86.0938 32 85.5924 31.968 85.0378 31.904C84.5044 31.8187 83.9924 31.6373 83.5018 31.36C83.0324 31.0613 82.6377 30.6133 82.3177 30.016C81.9978 29.4187 81.8378 28.5973 81.8378 27.552V13.152C81.8378 12.5973 82.0191 12.1387 82.3818 11.776C82.7658 11.392 83.2351 11.2 83.7898 11.2ZM105.972 14.88C106.526 14.88 106.985 15.072 107.347 15.456C107.71 15.8187 107.892 16.2773 107.892 16.832V24.96C107.892 27.2213 107.262 29.0133 106.004 30.336C104.745 31.6587 102.932 32.32 100.564 32.32C98.1955 32.32 96.3822 31.6587 95.1235 30.336C93.8862 29.0133 93.2675 27.2213 93.2675 24.96V16.832C93.2675 16.2773 93.4488 15.8187 93.8115 15.456C94.1742 15.072 94.6328 14.88 95.1875 14.88C95.7422 14.88 96.2008 15.072 96.5635 15.456C96.9262 15.8187 97.1075 16.2773 97.1075 16.832V24.96C97.1075 26.2613 97.3955 27.232 97.9715 27.872C98.5475 28.4907 99.4115 28.8 100.564 28.8C101.737 28.8 102.612 28.4907 103.188 27.872C103.764 27.232 104.052 26.2613 104.052 24.96V16.832C104.052 16.2773 104.233 15.8187 104.596 15.456C104.958 15.072 105.417 14.88 105.972 14.88ZM126.065 8.32C126.619 8.32 127.078 8.50133 127.441 8.864C127.803 9.22667 127.985 9.696 127.985 10.272V30.048C127.985 30.6027 127.803 31.072 127.441 31.456C127.078 31.8187 126.619 32 126.065 32C125.51 32 125.051 31.8187 124.689 31.456C124.326 31.072 124.145 30.6027 124.145 30.048V28.48L124.849 28.768C124.849 29.0453 124.699 29.3867 124.401 29.792C124.102 30.176 123.697 30.56 123.185 30.944C122.673 31.328 122.065 31.6587 121.361 31.936C120.678 32.192 119.931 32.32 119.121 32.32C117.649 32.32 116.315 31.9467 115.121 31.2C113.926 30.432 112.977 29.3867 112.273 28.064C111.59 26.72 111.249 25.184 111.249 23.456C111.249 21.7067 111.59 20.1707 112.273 18.848C112.977 17.504 113.915 16.4587 115.089 15.712C116.262 14.944 117.563 14.56 118.993 14.56C119.91 14.56 120.753 14.6987 121.521 14.976C122.289 15.2533 122.95 15.6053 123.505 16.032C124.081 16.4587 124.518 16.896 124.817 17.344C125.137 17.7707 125.297 18.1333 125.297 18.432L124.145 18.848V10.272C124.145 9.71733 124.326 9.25867 124.689 8.896C125.051 8.512 125.51 8.32 126.065 8.32ZM119.601 28.8C120.539 28.8 121.361 28.5653 122.065 28.096C122.769 27.6267 123.313 26.9867 123.697 26.176C124.102 25.3653 124.305 24.4587 124.305 23.456C124.305 22.432 124.102 21.5147 123.697 20.704C123.313 19.8933 122.769 19.2533 122.065 18.784C121.361 18.3147 120.539 18.08 119.601 18.08C118.683 18.08 117.873 18.3147 117.169 18.784C116.465 19.2533 115.91 19.8933 115.505 20.704C115.121 21.5147 114.929 22.432 114.929 23.456C114.929 24.4587 115.121 25.3653 115.505 26.176C115.91 26.9867 116.465 27.6267 117.169 28.096C117.873 28.5653 118.683 28.8 119.601 28.8ZM140.207 32.32C138.393 32.32 136.815 31.9467 135.471 31.2C134.148 30.432 133.124 29.3973 132.399 28.096C131.695 26.7947 131.343 25.3227 131.343 23.68C131.343 21.76 131.727 20.128 132.495 18.784C133.284 17.4187 134.308 16.3733 135.567 15.648C136.825 14.9227 138.159 14.56 139.567 14.56C140.655 14.56 141.679 14.784 142.639 15.232C143.62 15.68 144.484 16.2987 145.231 17.088C145.977 17.856 146.564 18.752 146.991 19.776C147.439 20.8 147.663 21.888 147.663 23.04C147.641 23.552 147.439 23.968 147.055 24.288C146.671 24.608 146.223 24.768 145.711 24.768H133.487L132.527 21.568H144.271L143.567 22.208V21.344C143.524 20.7253 143.3 20.1707 142.895 19.68C142.511 19.1893 142.02 18.8053 141.423 18.528C140.847 18.2293 140.228 18.08 139.567 18.08C138.927 18.08 138.329 18.1653 137.775 18.336C137.22 18.5067 136.74 18.7947 136.335 19.2C135.929 19.6053 135.609 20.1493 135.375 20.832C135.14 21.5147 135.023 22.3787 135.023 23.424C135.023 24.576 135.257 25.5573 135.727 26.368C136.217 27.1573 136.836 27.7653 137.583 28.192C138.351 28.5973 139.161 28.8 140.015 28.8C140.804 28.8 141.433 28.736 141.903 28.608C142.372 28.48 142.745 28.3307 143.023 28.16C143.321 27.968 143.588 27.808 143.823 27.68C144.207 27.488 144.569 27.392 144.911 27.392C145.38 27.392 145.764 27.552 146.062 27.872C146.383 28.192 146.543 28.5653 146.543 28.992C146.543 29.568 146.244 30.0907 145.647 30.56C145.092 31.0293 144.313 31.4453 143.311 31.808C142.308 32.1493 141.273 32.32 140.207 32.32ZM160.17 14.56C161.748 14.56 162.943 14.8907 163.754 15.552C164.586 16.2133 165.151 17.0987 165.45 18.208C165.77 19.296 165.93 20.512 165.93 21.856V30.048C165.93 30.6027 165.748 31.072 165.385 31.456C165.023 31.8187 164.564 32 164.01 32C163.455 32 162.996 31.8187 162.634 31.456C162.271 31.072 162.09 30.6027 162.09 30.048V21.856C162.09 21.152 161.994 20.5227 161.802 19.968C161.631 19.392 161.311 18.9333 160.842 18.592C160.372 18.2507 159.7 18.08 158.826 18.08C157.972 18.08 157.247 18.2507 156.65 18.592C156.074 18.9333 155.626 19.392 155.306 19.968C155.007 20.5227 154.858 21.152 154.858 21.856V30.048C154.858 30.6027 154.676 31.072 154.314 31.456C153.951 31.8187 153.492 32 152.938 32C152.383 32 151.924 31.8187 151.562 31.456C151.199 31.072 151.018 30.6027 151.018 30.048V16.832C151.018 16.2773 151.199 15.8187 151.562 15.456C151.924 15.072 152.383 14.88 152.938 14.88C153.492 14.88 153.951 15.072 154.314 15.456C154.676 15.8187 154.858 16.2773 154.858 16.832V18.208L154.378 18.112C154.57 17.7493 154.847 17.3653 155.21 16.96C155.572 16.5333 155.999 16.1387 156.49 15.776C156.98 15.4133 157.535 15.1253 158.154 14.912C158.772 14.6773 159.444 14.56 160.17 14.56ZM170.272 15.2H177.856C178.368 15.2 178.795 15.3707 179.136 15.712C179.477 16.0533 179.648 16.48 179.648 16.992C179.648 17.4827 179.477 17.8987 179.136 18.24C178.795 18.56 178.368 18.72 177.856 18.72H170.272C169.76 18.72 169.333 18.5493 168.992 18.208C168.651 17.8667 168.48 17.44 168.48 16.928C168.48 16.4373 168.651 16.032 168.992 15.712C169.333 15.3707 169.76 15.2 170.272 15.2ZM173.696 11.2C174.251 11.2 174.699 11.392 175.04 11.776C175.403 12.1387 175.584 12.5973 175.584 13.152V27.392C175.584 27.6907 175.637 27.936 175.744 28.128C175.872 28.32 176.032 28.4587 176.224 28.544C176.437 28.6293 176.661 28.672 176.896 28.672C177.152 28.672 177.387 28.6293 177.6 28.544C177.813 28.4373 178.059 28.384 178.336 28.384C178.635 28.384 178.901 28.5227 179.136 28.8C179.392 29.0773 179.52 29.4613 179.52 29.952C179.52 30.5493 179.189 31.04 178.528 31.424C177.888 31.808 177.195 32 176.448 32C176 32 175.499 31.968 174.944 31.904C174.411 31.8187 173.899 31.6373 173.408 31.36C172.939 31.0613 172.544 30.6133 172.224 30.016C171.904 29.4187 171.744 28.5973 171.744 27.552V13.152C171.744 12.5973 171.925 12.1387 172.288 11.776C172.672 11.392 173.141 11.2 173.696 11.2Z" fill="#8685EF"/>
<path d="M71.448 49.6C73.3253 49.6 74.7653 50.0907 75.768 51.072C76.792 52.032 77.304 53.3973 77.304 55.168C77.304 56.1067 77.0907 56.9707 76.664 57.76C76.2373 58.5493 75.608 59.1787 74.776 59.648C73.9653 60.1173 72.9627 60.3733 71.768 60.416L71.704 59.52C72.4507 59.52 73.2187 59.6267 74.008 59.84C74.7973 60.0533 75.5227 60.3947 76.184 60.864C76.8667 61.3333 77.4107 61.952 77.816 62.72C78.2427 63.488 78.456 64.4373 78.456 65.568C78.456 66.784 78.2533 67.808 77.848 68.64C77.4427 69.4507 76.8987 70.112 76.216 70.624C75.5547 71.1147 74.808 71.4667 73.976 71.68C73.1653 71.8933 72.344 72 71.512 72H63.096C62.7333 72 62.424 71.872 62.168 71.616C61.9333 71.36 61.816 71.0507 61.816 70.688V50.88C61.816 50.5173 61.9333 50.2187 62.168 49.984C62.424 49.728 62.7333 49.6 63.096 49.6H71.448ZM71.064 52.128H64.184L64.568 51.552V59.52L64.216 59.104H71.128C72.0667 59.104 72.8667 58.8053 73.528 58.208C74.2107 57.5893 74.552 56.6827 74.552 55.488C74.552 54.4213 74.2427 53.6 73.624 53.024C73.0053 52.4267 72.152 52.128 71.064 52.128ZM71.32 61.664H64.344L64.568 61.44V69.792L64.312 69.504H71.416C72.6747 69.504 73.6987 69.184 74.488 68.544C75.2987 67.904 75.704 66.912 75.704 65.568C75.704 64.5227 75.4907 63.7227 75.064 63.168C74.6373 62.592 74.0827 62.1973 73.4 61.984C72.7387 61.7707 72.0453 61.664 71.32 61.664ZM89.891 72.32C88.1843 72.32 86.691 71.9573 85.411 71.232C84.131 70.5067 83.1283 69.5147 82.403 68.256C81.699 66.976 81.347 65.504 81.347 63.84C81.347 61.984 81.7097 60.4053 82.435 59.104C83.1817 57.7813 84.1417 56.7787 85.315 56.096C86.5097 55.392 87.7683 55.04 89.091 55.04C90.0723 55.04 91.0217 55.2213 91.939 55.584C92.8563 55.9467 93.667 56.48 94.371 57.184C95.075 57.8667 95.6403 58.6987 96.067 59.68C96.4937 60.64 96.7177 61.7173 96.739 62.912C96.739 63.2533 96.611 63.5413 96.355 63.776C96.099 64.0107 95.8003 64.128 95.459 64.128H82.819L82.243 61.92H94.563L94.051 62.368V61.664C93.9657 60.7893 93.667 60.0427 93.155 59.424C92.6643 58.784 92.0563 58.2933 91.331 57.952C90.627 57.6107 89.8803 57.44 89.091 57.44C88.451 57.44 87.811 57.5573 87.171 57.792C86.5523 58.0053 85.987 58.368 85.475 58.88C84.9843 59.3707 84.579 60.0107 84.259 60.8C83.9603 61.5893 83.811 62.5387 83.811 63.648C83.811 64.8853 84.0563 65.9733 84.547 66.912C85.059 67.8507 85.763 68.5973 86.659 69.152C87.555 69.6853 88.6003 69.952 89.795 69.952C90.5417 69.952 91.1923 69.856 91.747 69.664C92.3017 69.472 92.7817 69.2373 93.187 68.96C93.5923 68.6613 93.9337 68.3627 94.211 68.064C94.4883 67.872 94.755 67.776 95.011 67.776C95.331 67.776 95.587 67.8827 95.779 68.096C95.9923 68.3093 96.099 68.5653 96.099 68.864C96.099 69.2267 95.9283 69.5467 95.587 69.824C94.9897 70.4853 94.179 71.072 93.155 71.584C92.131 72.0747 91.043 72.32 89.891 72.32ZM108.811 55.04C110.261 55.04 111.403 55.3387 112.235 55.936C113.067 56.5333 113.653 57.3333 113.995 58.336C114.357 59.3387 114.539 60.4587 114.539 61.696V70.688C114.539 71.0507 114.411 71.36 114.155 71.616C113.92 71.872 113.621 72 113.259 72C112.896 72 112.587 71.872 112.331 71.616C112.096 71.36 111.979 71.0507 111.979 70.688V61.76C111.979 60.9493 111.851 60.224 111.595 59.584C111.36 58.9227 110.955 58.4 110.379 58.016C109.824 57.6107 109.056 57.408 108.075 57.408C107.179 57.408 106.357 57.6107 105.611 58.016C104.864 58.4 104.267 58.9227 103.819 59.584C103.371 60.224 103.147 60.9493 103.147 61.76V70.688C103.147 71.0507 103.019 71.36 102.763 71.616C102.528 71.872 102.229 72 101.867 72C101.504 72 101.195 71.872 100.939 71.616C100.704 71.36 100.587 71.0507 100.587 70.688V56.736C100.587 56.3733 100.704 56.0747 100.939 55.84C101.195 55.584 101.504 55.456 101.867 55.456C102.251 55.456 102.56 55.584 102.795 55.84C103.029 56.0747 103.147 56.3733 103.147 56.736V59.008L102.507 59.712C102.613 59.1573 102.859 58.6027 103.243 58.048C103.627 57.472 104.107 56.96 104.683 56.512C105.259 56.064 105.899 55.712 106.603 55.456C107.307 55.1787 108.043 55.04 108.811 55.04ZM126.634 55.04C127.722 55.04 128.704 55.1573 129.578 55.392C130.453 55.6267 131.146 55.9467 131.658 56.352C132.17 56.7573 132.426 57.216 132.426 57.728C132.426 58.0053 132.33 58.272 132.138 58.528C131.946 58.784 131.69 58.912 131.37 58.912C131.072 58.912 130.826 58.8587 130.634 58.752C130.464 58.6453 130.293 58.5067 130.122 58.336C129.973 58.1653 129.76 58.016 129.482 57.888C129.226 57.7387 128.853 57.6213 128.362 57.536C127.872 57.4507 127.381 57.408 126.89 57.408C125.717 57.408 124.682 57.6853 123.786 58.24C122.912 58.7947 122.218 59.5413 121.706 60.48C121.194 61.4187 120.938 62.4853 120.938 63.68C120.938 64.8747 121.184 65.9413 121.674 66.88C122.165 67.8187 122.848 68.5653 123.722 69.12C124.597 69.6747 125.61 69.952 126.762 69.952C127.509 69.952 128.106 69.888 128.554 69.76C129.002 69.632 129.376 69.4827 129.674 69.312C130.058 69.0987 130.346 68.8853 130.538 68.672C130.752 68.4587 131.029 68.352 131.37 68.352C131.733 68.352 132.01 68.4693 132.202 68.704C132.416 68.9387 132.522 69.2267 132.522 69.568C132.522 69.952 132.256 70.3573 131.722 70.784C131.189 71.2107 130.464 71.5733 129.546 71.872C128.65 72.1707 127.626 72.32 126.474 72.32C124.853 72.32 123.434 71.9467 122.218 71.2C121.002 70.432 120.053 69.3973 119.37 68.096C118.709 66.7733 118.378 65.3013 118.378 63.68C118.378 62.0587 118.72 60.5973 119.402 59.296C120.106 57.9947 121.077 56.96 122.314 56.192C123.552 55.424 124.992 55.04 126.634 55.04ZM143.868 55.2C145.276 55.2 146.385 55.5093 147.196 56.128C148.028 56.7253 148.615 57.536 148.956 58.56C149.319 59.5627 149.5 60.6827 149.5 61.92V70.688C149.5 71.0507 149.372 71.36 149.116 71.616C148.881 71.872 148.583 72 148.22 72C147.857 72 147.548 71.872 147.292 71.616C147.057 71.36 146.94 71.0507 146.94 70.688V61.92C146.94 61.1093 146.823 60.384 146.588 59.744C146.353 59.0827 145.959 58.56 145.404 58.176C144.871 57.7707 144.135 57.568 143.196 57.568C142.321 57.568 141.521 57.7707 140.796 58.176C140.071 58.56 139.495 59.0827 139.068 59.744C138.641 60.384 138.428 61.1093 138.428 61.92V70.688C138.428 71.0507 138.3 71.36 138.044 71.616C137.809 71.872 137.511 72 137.148 72C136.785 72 136.476 71.872 136.22 71.616C135.985 71.36 135.868 71.0507 135.868 70.688V49.6C135.868 49.2373 135.985 48.9387 136.22 48.704C136.476 48.448 136.785 48.32 137.148 48.32C137.532 48.32 137.841 48.448 138.076 48.704C138.311 48.9387 138.428 49.2373 138.428 49.6V59.168L137.788 59.872C137.895 59.3173 138.129 58.7627 138.492 58.208C138.855 57.632 139.313 57.12 139.868 56.672C140.423 56.224 141.041 55.872 141.724 55.616C142.407 55.3387 143.121 55.2 143.868 55.2ZM162.147 55.2C163.598 55.2 164.771 55.5733 165.667 56.32C166.584 57.0453 167.192 58.08 167.491 59.424H167.011L167.235 58.848C167.491 58.2507 167.928 57.6747 168.547 57.12C169.166 56.5653 169.88 56.1067 170.691 55.744C171.502 55.3813 172.344 55.2 173.219 55.2C174.627 55.2 175.736 55.5093 176.547 56.128C177.358 56.7253 177.934 57.536 178.275 58.56C178.638 59.5627 178.819 60.6933 178.819 61.952V70.688C178.819 71.0507 178.691 71.36 178.435 71.616C178.2 71.872 177.902 72 177.539 72C177.155 72 176.846 71.872 176.611 71.616C176.376 71.36 176.259 71.0507 176.259 70.688V62.016C176.259 61.184 176.131 60.4373 175.875 59.776C175.64 59.0933 175.246 58.56 174.691 58.176C174.158 57.7707 173.422 57.568 172.483 57.568C171.608 57.568 170.808 57.7707 170.083 58.176C169.358 58.56 168.782 59.0933 168.355 59.776C167.928 60.4373 167.715 61.184 167.715 62.016V70.688C167.715 71.0507 167.598 71.36 167.363 71.616C167.128 71.872 166.819 72 166.435 72C166.072 72 165.763 71.872 165.507 71.616C165.272 71.36 165.155 71.0507 165.155 70.688V61.92C165.155 61.1093 165.038 60.384 164.803 59.744C164.59 59.0827 164.216 58.56 163.683 58.176C163.15 57.7707 162.414 57.568 161.475 57.568C160.622 57.568 159.843 57.7707 159.139 58.176C158.435 58.56 157.87 59.0827 157.443 59.744C157.016 60.384 156.803 61.1093 156.803 61.92V70.688C156.803 71.0507 156.675 71.36 156.419 71.616C156.184 71.872 155.886 72 155.523 72C155.16 72 154.851 71.872 154.595 71.616C154.36 71.36 154.243 71.0507 154.243 70.688V56.736C154.243 56.3733 154.36 56.0747 154.595 55.84C154.851 55.584 155.16 55.456 155.523 55.456C155.907 55.456 156.216 55.584 156.451 55.84C156.686 56.0747 156.803 56.3733 156.803 56.736V59.168L156.099 59.936C156.184 59.3813 156.398 58.8267 156.739 58.272C157.102 57.7173 157.56 57.2053 158.115 56.736C158.67 56.2667 159.288 55.8933 159.971 55.616C160.654 55.3387 161.379 55.2 162.147 55.2ZM197.188 55.296C197.55 55.296 197.849 55.424 198.083 55.68C198.34 55.9147 198.468 56.2133 198.468 56.576V70.688C198.468 71.0507 198.34 71.36 198.083 71.616C197.849 71.872 197.55 72 197.188 72C196.804 72 196.494 71.872 196.26 71.616C196.025 71.36 195.908 71.0507 195.908 70.688V67.648L196.516 67.584C196.516 68.0533 196.356 68.5653 196.036 69.12C195.716 69.6747 195.278 70.1973 194.724 70.688C194.169 71.1573 193.508 71.552 192.74 71.872C191.993 72.1707 191.182 72.32 190.308 72.32C188.857 72.32 187.556 71.9467 186.404 71.2C185.252 70.432 184.334 69.3973 183.652 68.096C182.99 66.7947 182.66 65.312 182.66 63.648C182.66 61.9627 182.99 60.48 183.652 59.2C184.334 57.8987 185.252 56.8853 186.404 56.16C187.556 55.4133 188.836 55.04 190.244 55.04C191.161 55.04 192.014 55.1893 192.804 55.488C193.593 55.7867 194.276 56.192 194.852 56.704C195.449 57.216 195.908 57.7813 196.228 58.4C196.569 59.0187 196.74 59.6373 196.74 60.256L195.908 60.064V56.576C195.908 56.2133 196.025 55.9147 196.26 55.68C196.494 55.424 196.804 55.296 197.188 55.296ZM190.595 69.952C191.662 69.952 192.601 69.6747 193.412 69.12C194.244 68.5653 194.884 67.8187 195.332 66.88C195.801 65.92 196.036 64.8427 196.036 63.648C196.036 62.4747 195.801 61.4187 195.332 60.48C194.884 59.52 194.244 58.7733 193.412 58.24C192.601 57.6853 191.662 57.408 190.595 57.408C189.55 57.408 188.612 57.6747 187.78 58.208C186.969 58.7413 186.329 59.4773 185.86 60.416C185.39 61.3547 185.156 62.432 185.156 63.648C185.156 64.8427 185.38 65.92 185.828 66.88C186.297 67.8187 186.937 68.5653 187.748 69.12C188.58 69.6747 189.529 69.952 190.595 69.952ZM204.492 72C204.129 72 203.82 71.872 203.564 71.616C203.329 71.36 203.212 71.0507 203.212 70.688V56.736C203.212 56.3733 203.329 56.0747 203.564 55.84C203.82 55.584 204.129 55.456 204.492 55.456C204.876 55.456 205.185 55.584 205.42 55.84C205.654 56.0747 205.772 56.3733 205.772 56.736V60.96L205.388 60.288C205.516 59.6267 205.74 58.9867 206.06 58.368C206.401 57.728 206.828 57.1627 207.34 56.672C207.852 56.16 208.438 55.7653 209.1 55.488C209.761 55.1893 210.486 55.04 211.276 55.04C211.745 55.04 212.172 55.1573 212.556 55.392C212.961 55.6053 213.164 55.9147 213.164 56.32C213.164 56.768 213.046 57.0987 212.812 57.312C212.577 57.5253 212.31 57.632 212.012 57.632C211.734 57.632 211.468 57.5787 211.212 57.472C210.956 57.344 210.636 57.28 210.252 57.28C209.718 57.28 209.185 57.4293 208.652 57.728C208.14 58.0053 207.66 58.4107 207.212 58.944C206.785 59.4773 206.433 60.0853 206.156 60.768C205.9 61.4293 205.772 62.144 205.772 62.912V70.688C205.772 71.0507 205.644 71.36 205.388 71.616C205.153 71.872 204.854 72 204.492 72ZM217.592 72C217.208 72 216.898 71.872 216.664 71.616C216.429 71.36 216.312 71.0507 216.312 70.688V49.6C216.312 49.2373 216.429 48.9387 216.664 48.704C216.898 48.448 217.208 48.32 217.592 48.32C217.954 48.32 218.253 48.448 218.488 48.704C218.744 48.9387 218.872 49.2373 218.872 49.6V70.688C218.872 71.0507 218.744 71.36 218.488 71.616C218.253 71.872 217.954 72 217.592 72ZM228.216 55.36C228.557 55.36 228.845 55.4987 229.08 55.776C229.336 56.032 229.464 56.2987 229.464 56.576C229.464 56.9387 229.293 57.2587 228.952 57.536L218.584 66.592L218.488 63.616L227.32 55.744C227.576 55.488 227.874 55.36 228.216 55.36ZM228.568 71.968C228.205 71.968 227.885 71.8293 227.608 71.552L220.792 64.288L222.712 62.528L229.464 69.76C229.72 70.0373 229.847 70.3573 229.847 70.72C229.847 71.104 229.698 71.4133 229.4 71.648C229.101 71.8613 228.824 71.968 228.568 71.968Z" fill="#FAF7FF"/>
<rect x="18" y="45" width="8" height="27" rx="4" fill="url(#paint0_linear_7_79)"/>
<rect x="36" y="24" width="8" height="48" rx="4" fill="url(#paint1_linear_7_79)"/>
<circle cx="40" cy="16" r="4" fill="url(#paint2_linear_7_79)"/>
<circle cx="22" cy="37" r="4" fill="url(#paint3_linear_7_79)"/>
<circle cx="4" cy="22" r="4" fill="url(#paint4_linear_7_79)"/>
<rect y="30" width="8" height="42" rx="4" fill="url(#paint5_linear_7_79)"/>
<path fill-rule="evenodd" clip-rule="evenodd" d="M21.3598 37.7683L3.3598 22.7683L4.64017 21.2318L22.6402 36.2318L21.3598 37.7683Z" fill="url(#paint6_linear_7_79)"/>
<path fill-rule="evenodd" clip-rule="evenodd" d="M21.2407 36.3492L39.2407 15.3492L40.7592 16.6508L22.7592 37.6508L21.2407 36.3492Z" fill="url(#paint7_linear_7_79)"/>
<defs>
<linearGradient id="paint0_linear_7_79" x1="22" y1="45" x2="22" y2="72" gradientUnits="userSpaceOnUse">
<stop stop-color="white"/>
<stop offset="1" stop-color="#FAF7FF"/>
</linearGradient>
<linearGradient id="paint1_linear_7_79" x1="40" y1="24" x2="40" y2="72" gradientUnits="userSpaceOnUse">
<stop stop-color="white"/>
<stop offset="1" stop-color="#FAF7FF"/>
</linearGradient>
<linearGradient id="paint2_linear_7_79" x1="40" y1="12" x2="40" y2="20" gradientUnits="userSpaceOnUse">
<stop stop-color="white"/>
<stop offset="1" stop-color="#FAF7FF"/>
</linearGradient>
<linearGradient id="paint3_linear_7_79" x1="22" y1="33" x2="22" y2="41" gradientUnits="userSpaceOnUse">
<stop stop-color="white"/>
<stop offset="1" stop-color="#FAF7FF"/>
</linearGradient>
<linearGradient id="paint4_linear_7_79" x1="4" y1="18" x2="4" y2="26" gradientUnits="userSpaceOnUse">
<stop stop-color="white"/>
<stop offset="1" stop-color="#FAF7FF"/>
</linearGradient>
<linearGradient id="paint5_linear_7_79" x1="4" y1="30" x2="4" y2="72" gradientUnits="userSpaceOnUse">
<stop stop-color="white"/>
<stop offset="1" stop-color="#FAF7FF"/>
</linearGradient>
<linearGradient id="paint6_linear_7_79" x1="13" y1="22" x2="13" y2="37" gradientUnits="userSpaceOnUse">
<stop stop-color="#FAF7FF"/>
<stop offset="1" stop-color="#FAF7FF" stop-opacity="0"/>
</linearGradient>
<linearGradient id="paint7_linear_7_79" x1="31" y1="16" x2="31" y2="37" gradientUnits="userSpaceOnUse">
<stop stop-color="#FAF7FF"/>
<stop offset="1" stop-color="#FAF7FF" stop-opacity="0"/>
</linearGradient>
</defs>
</svg>
