<svg width="331" height="461" viewBox="0 0 331 461" fill="none" xmlns="http://www.w3.org/2000/svg">
<path d="M75.468 380.56C72.8546 380.56 70.5026 380.243 68.412 379.608C66.3213 378.936 64.324 377.779 62.42 376.136C61.9346 375.725 61.5613 375.259 61.3 374.736C61.0386 374.213 60.908 373.691 60.908 373.168C60.908 372.309 61.2066 371.563 61.804 370.928C62.4386 370.256 63.2226 369.92 64.156 369.92C64.8653 369.92 65.5 370.144 66.06 370.592C67.4786 371.749 68.8786 372.627 70.26 373.224C71.6786 373.821 73.4146 374.12 75.468 374.12C76.8493 374.12 78.1186 373.915 79.276 373.504C80.4333 373.056 81.3666 372.477 82.076 371.768C82.7853 371.021 83.14 370.181 83.14 369.248C83.14 368.128 82.804 367.176 82.132 366.392C81.46 365.608 80.4333 364.955 79.052 364.432C77.6706 363.872 75.916 363.443 73.788 363.144C71.772 362.845 69.9986 362.397 68.468 361.8C66.9373 361.165 65.6493 360.381 64.604 359.448C63.596 358.477 62.8306 357.357 62.308 356.088C61.7853 354.781 61.524 353.325 61.524 351.72C61.524 349.293 62.14 347.221 63.372 345.504C64.6413 343.787 66.34 342.48 68.468 341.584C70.596 340.688 72.948 340.24 75.524 340.24C77.9506 340.24 80.1906 340.613 82.244 341.36C84.3346 342.069 86.0333 342.984 87.34 344.104C88.4226 344.963 88.964 345.952 88.964 347.072C88.964 347.893 88.6466 348.64 88.012 349.312C87.3773 349.984 86.6306 350.32 85.772 350.32C85.212 350.32 84.708 350.152 84.26 349.816C83.6626 349.293 82.86 348.808 81.852 348.36C80.844 347.875 79.78 347.483 78.66 347.184C77.54 346.848 76.4946 346.68 75.524 346.68C73.9186 346.68 72.556 346.885 71.436 347.296C70.3533 347.707 69.532 348.267 68.972 348.976C68.412 349.685 68.132 350.507 68.132 351.44C68.132 352.56 68.4493 353.493 69.084 354.24C69.756 354.949 70.708 355.528 71.94 355.976C73.172 356.387 74.6466 356.76 76.364 357.096C78.604 357.507 80.564 357.992 82.244 358.552C83.9613 359.112 85.38 359.84 86.5 360.736C87.62 361.595 88.46 362.696 89.02 364.04C89.58 365.347 89.86 366.952 89.86 368.856C89.86 371.283 89.188 373.373 87.844 375.128C86.5 376.883 84.7266 378.227 82.524 379.16C80.3586 380.093 78.0066 380.56 75.468 380.56ZM96.058 350.6H109.33C110.226 350.6 110.973 350.899 111.57 351.496C112.167 352.093 112.466 352.84 112.466 353.736C112.466 354.595 112.167 355.323 111.57 355.92C110.973 356.48 110.226 356.76 109.33 356.76H96.058C95.162 356.76 94.4154 356.461 93.818 355.864C93.2207 355.267 92.922 354.52 92.922 353.624C92.922 352.765 93.2207 352.056 93.818 351.496C94.4154 350.899 95.162 350.6 96.058 350.6ZM102.05 343.6C103.021 343.6 103.805 343.936 104.402 344.608C105.037 345.243 105.354 346.045 105.354 347.016V371.936C105.354 372.459 105.447 372.888 105.634 373.224C105.858 373.56 106.138 373.803 106.474 373.952C106.847 374.101 107.239 374.176 107.65 374.176C108.098 374.176 108.509 374.101 108.882 373.952C109.255 373.765 109.685 373.672 110.17 373.672C110.693 373.672 111.159 373.915 111.57 374.4C112.018 374.885 112.242 375.557 112.242 376.416C112.242 377.461 111.663 378.32 110.506 378.992C109.386 379.664 108.173 380 106.866 380C106.082 380 105.205 379.944 104.234 379.832C103.301 379.683 102.405 379.365 101.546 378.88C100.725 378.357 100.034 377.573 99.474 376.528C98.914 375.483 98.634 374.045 98.634 372.216V347.016C98.634 346.045 98.9514 345.243 99.586 344.608C100.258 343.936 101.079 343.6 102.05 343.6ZM140.868 350.04C141.839 350.04 142.641 350.376 143.276 351.048C143.911 351.683 144.228 352.485 144.228 353.456V367.68C144.228 371.637 143.127 374.773 140.924 377.088C138.721 379.403 135.548 380.56 131.404 380.56C127.26 380.56 124.087 379.403 121.884 377.088C119.719 374.773 118.636 371.637 118.636 367.68V353.456C118.636 352.485 118.953 351.683 119.588 351.048C120.223 350.376 121.025 350.04 121.996 350.04C122.967 350.04 123.769 350.376 124.404 351.048C125.039 351.683 125.356 352.485 125.356 353.456V367.68C125.356 369.957 125.86 371.656 126.868 372.776C127.876 373.859 129.388 374.4 131.404 374.4C133.457 374.4 134.988 373.859 135.996 372.776C137.004 371.656 137.508 369.957 137.508 367.68V353.456C137.508 352.485 137.825 351.683 138.46 351.048C139.095 350.376 139.897 350.04 140.868 350.04ZM176.031 338.56C177.002 338.56 177.805 338.877 178.439 339.512C179.074 340.147 179.391 340.968 179.391 341.976V376.584C179.391 377.555 179.074 378.376 178.439 379.048C177.805 379.683 177.002 380 176.031 380C175.061 380 174.258 379.683 173.623 379.048C172.989 378.376 172.671 377.555 172.671 376.584V373.84L173.903 374.344C173.903 374.829 173.642 375.427 173.119 376.136C172.597 376.808 171.887 377.48 170.991 378.152C170.095 378.824 169.031 379.403 167.799 379.888C166.605 380.336 165.298 380.56 163.879 380.56C161.303 380.56 158.97 379.907 156.879 378.6C154.789 377.256 153.127 375.427 151.895 373.112C150.701 370.76 150.103 368.072 150.103 365.048C150.103 361.987 150.701 359.299 151.895 356.984C153.127 354.632 154.77 352.803 156.823 351.496C158.877 350.152 161.154 349.48 163.655 349.48C165.261 349.48 166.735 349.723 168.079 350.208C169.423 350.693 170.581 351.309 171.551 352.056C172.559 352.803 173.325 353.568 173.847 354.352C174.407 355.099 174.687 355.733 174.687 356.256L172.671 356.984V341.976C172.671 341.005 172.989 340.203 173.623 339.568C174.258 338.896 175.061 338.56 176.031 338.56ZM164.719 374.4C166.362 374.4 167.799 373.989 169.031 373.168C170.263 372.347 171.215 371.227 171.887 369.808C172.597 368.389 172.951 366.803 172.951 365.048C172.951 363.256 172.597 361.651 171.887 360.232C171.215 358.813 170.263 357.693 169.031 356.872C167.799 356.051 166.362 355.64 164.719 355.64C163.114 355.64 161.695 356.051 160.463 356.872C159.231 357.693 158.261 358.813 157.551 360.232C156.879 361.651 156.543 363.256 156.543 365.048C156.543 366.803 156.879 368.389 157.551 369.808C158.261 371.227 159.231 372.347 160.463 373.168C161.695 373.989 163.114 374.4 164.719 374.4ZM200.779 380.56C197.606 380.56 194.843 379.907 192.491 378.6C190.177 377.256 188.385 375.445 187.115 373.168C185.883 370.891 185.267 368.315 185.267 365.44C185.267 362.08 185.939 359.224 187.283 356.872C188.665 354.483 190.457 352.653 192.659 351.384C194.862 350.115 197.195 349.48 199.659 349.48C201.563 349.48 203.355 349.872 205.035 350.656C206.753 351.44 208.265 352.523 209.571 353.904C210.878 355.248 211.905 356.816 212.651 358.608C213.435 360.4 213.827 362.304 213.827 364.32C213.79 365.216 213.435 365.944 212.763 366.504C212.091 367.064 211.307 367.344 210.411 367.344H189.019L187.339 361.744H207.891L206.659 362.864V361.352C206.585 360.269 206.193 359.299 205.483 358.44C204.811 357.581 203.953 356.909 202.907 356.424C201.899 355.901 200.817 355.64 199.659 355.64C198.539 355.64 197.494 355.789 196.523 356.088C195.553 356.387 194.713 356.891 194.003 357.6C193.294 358.309 192.734 359.261 192.323 360.456C191.913 361.651 191.707 363.163 191.707 364.992C191.707 367.008 192.118 368.725 192.939 370.144C193.798 371.525 194.881 372.589 196.187 373.336C197.531 374.045 198.95 374.4 200.443 374.4C201.825 374.4 202.926 374.288 203.747 374.064C204.569 373.84 205.222 373.579 205.707 373.28C206.23 372.944 206.697 372.664 207.107 372.44C207.779 372.104 208.414 371.936 209.011 371.936C209.833 371.936 210.505 372.216 211.027 372.776C211.587 373.336 211.867 373.989 211.867 374.736C211.867 375.744 211.345 376.659 210.299 377.48C209.329 378.301 207.966 379.029 206.211 379.664C204.457 380.261 202.646 380.56 200.779 380.56ZM235.715 349.48C238.477 349.48 240.568 350.059 241.987 351.216C243.443 352.373 244.432 353.923 244.955 355.864C245.515 357.768 245.795 359.896 245.795 362.248V376.584C245.795 377.555 245.477 378.376 244.843 379.048C244.208 379.683 243.405 380 242.435 380C241.464 380 240.661 379.683 240.027 379.048C239.392 378.376 239.075 377.555 239.075 376.584V362.248C239.075 361.016 238.907 359.915 238.571 358.944C238.272 357.936 237.712 357.133 236.891 356.536C236.069 355.939 234.893 355.64 233.363 355.64C231.869 355.64 230.6 355.939 229.555 356.536C228.547 357.133 227.763 357.936 227.203 358.944C226.68 359.915 226.419 361.016 226.419 362.248V376.584C226.419 377.555 226.101 378.376 225.467 379.048C224.832 379.683 224.029 380 223.059 380C222.088 380 221.285 379.683 220.651 379.048C220.016 378.376 219.699 377.555 219.699 376.584V353.456C219.699 352.485 220.016 351.683 220.651 351.048C221.285 350.376 222.088 350.04 223.059 350.04C224.029 350.04 224.832 350.376 225.467 351.048C226.101 351.683 226.419 352.485 226.419 353.456V355.864L225.579 355.696C225.915 355.061 226.4 354.389 227.035 353.68C227.669 352.933 228.416 352.243 229.275 351.608C230.133 350.973 231.104 350.469 232.187 350.096C233.269 349.685 234.445 349.48 235.715 349.48ZM253.394 350.6H266.666C267.562 350.6 268.309 350.899 268.906 351.496C269.503 352.093 269.802 352.84 269.802 353.736C269.802 354.595 269.503 355.323 268.906 355.92C268.309 356.48 267.562 356.76 266.666 356.76H253.394C252.498 356.76 251.751 356.461 251.154 355.864C250.557 355.267 250.258 354.52 250.258 353.624C250.258 352.765 250.557 352.056 251.154 351.496C251.751 350.899 252.498 350.6 253.394 350.6ZM259.386 343.6C260.357 343.6 261.141 343.936 261.738 344.608C262.373 345.243 262.69 346.045 262.69 347.016V371.936C262.69 372.459 262.783 372.888 262.97 373.224C263.194 373.56 263.474 373.803 263.81 373.952C264.183 374.101 264.575 374.176 264.986 374.176C265.434 374.176 265.845 374.101 266.218 373.952C266.591 373.765 267.021 373.672 267.506 373.672C268.029 373.672 268.495 373.915 268.906 374.4C269.354 374.885 269.578 375.557 269.578 376.416C269.578 377.461 268.999 378.32 267.842 378.992C266.722 379.664 265.509 380 264.202 380C263.418 380 262.541 379.944 261.57 379.832C260.637 379.683 259.741 379.365 258.882 378.88C258.061 378.357 257.37 377.573 256.81 376.528C256.25 375.483 255.97 374.045 255.97 372.216V347.016C255.97 346.045 256.287 345.243 256.922 344.608C257.594 343.936 258.415 343.6 259.386 343.6Z" fill="#8685EF"/>
<path d="M36.6199 400.8C39.9053 400.8 42.4253 401.659 44.1799 403.376C45.9719 405.056 46.8679 407.445 46.8679 410.544C46.8679 412.187 46.4946 413.699 45.7479 415.08C45.0013 416.461 43.8999 417.563 42.4439 418.384C41.0253 419.205 39.2706 419.653 37.1799 419.728L37.0679 418.16C38.3746 418.16 39.7186 418.347 41.0999 418.72C42.4813 419.093 43.7506 419.691 44.9079 420.512C46.1026 421.333 47.0546 422.416 47.7639 423.76C48.5106 425.104 48.8839 426.765 48.8839 428.744C48.8839 430.872 48.5293 432.664 47.8199 434.12C47.1106 435.539 46.1586 436.696 44.9639 437.592C43.8066 438.451 42.4999 439.067 41.0439 439.44C39.6253 439.813 38.1879 440 36.7319 440H22.0039C21.3693 440 20.8279 439.776 20.3799 439.328C19.9693 438.88 19.7639 438.339 19.7639 437.704V403.04C19.7639 402.405 19.9693 401.883 20.3799 401.472C20.8279 401.024 21.3693 400.8 22.0039 400.8H36.6199ZM35.9479 405.224H23.9079L24.5799 404.216V418.16L23.9639 417.432H36.0599C37.7026 417.432 39.1026 416.909 40.2599 415.864C41.4546 414.781 42.0519 413.195 42.0519 411.104C42.0519 409.237 41.5106 407.8 40.4279 406.792C39.3453 405.747 37.8519 405.224 35.9479 405.224ZM36.3959 421.912H24.1879L24.5799 421.52V436.136L24.1319 435.632H36.5639C38.7666 435.632 40.5586 435.072 41.9399 433.952C43.3586 432.832 44.0679 431.096 44.0679 428.744C44.0679 426.915 43.6946 425.515 42.9479 424.544C42.2013 423.536 41.2306 422.845 40.0359 422.472C38.8786 422.099 37.6653 421.912 36.3959 421.912ZM68.8952 440.56C65.9085 440.56 63.2952 439.925 61.0552 438.656C58.8152 437.387 57.0605 435.651 55.7912 433.448C54.5592 431.208 53.9432 428.632 53.9432 425.72C53.9432 422.472 54.5779 419.709 55.8472 417.432C57.1539 415.117 58.8339 413.363 60.8872 412.168C62.9779 410.936 65.1805 410.32 67.4952 410.32C69.2125 410.32 70.8739 410.637 72.4792 411.272C74.0845 411.907 75.5032 412.84 76.7352 414.072C77.9672 415.267 78.9565 416.723 79.7032 418.44C80.4499 420.12 80.8419 422.005 80.8792 424.096C80.8792 424.693 80.6552 425.197 80.2072 425.608C79.7592 426.019 79.2365 426.224 78.6392 426.224H56.5192L55.5112 422.36H77.0712L76.1752 423.144V421.912C76.0259 420.381 75.5032 419.075 74.6072 417.992C73.7485 416.872 72.6845 416.013 71.4152 415.416C70.1832 414.819 68.8765 414.52 67.4952 414.52C66.3752 414.52 65.2552 414.725 64.1352 415.136C63.0525 415.509 62.0632 416.144 61.1672 417.04C60.3085 417.899 59.5992 419.019 59.0392 420.4C58.5165 421.781 58.2552 423.443 58.2552 425.384C58.2552 427.549 58.6845 429.453 59.5432 431.096C60.4392 432.739 61.6712 434.045 63.2392 435.016C64.8072 435.949 66.6365 436.416 68.7272 436.416C70.0339 436.416 71.1725 436.248 72.1432 435.912C73.1139 435.576 73.9539 435.165 74.6632 434.68C75.3725 434.157 75.9699 433.635 76.4552 433.112C76.9405 432.776 77.4072 432.608 77.8552 432.608C78.4152 432.608 78.8632 432.795 79.1992 433.168C79.5725 433.541 79.7592 433.989 79.7592 434.512C79.7592 435.147 79.4605 435.707 78.8632 436.192C77.8179 437.349 76.3992 438.376 74.6072 439.272C72.8152 440.131 70.9112 440.56 68.8952 440.56ZM102.005 410.32C104.543 410.32 106.541 410.843 107.997 411.888C109.453 412.933 110.479 414.333 111.077 416.088C111.711 417.843 112.029 419.803 112.029 421.968V437.704C112.029 438.339 111.805 438.88 111.357 439.328C110.946 439.776 110.423 440 109.789 440C109.154 440 108.613 439.776 108.165 439.328C107.754 438.88 107.549 438.339 107.549 437.704V422.08C107.549 420.661 107.325 419.392 106.877 418.272C106.466 417.115 105.757 416.2 104.749 415.528C103.778 414.819 102.434 414.464 100.717 414.464C99.1488 414.464 97.7114 414.819 96.4048 415.528C95.0981 416.2 94.0528 417.115 93.2688 418.272C92.4848 419.392 92.0928 420.661 92.0928 422.08V437.704C92.0928 438.339 91.8688 438.88 91.4208 439.328C91.0101 439.776 90.4874 440 89.8528 440C89.2181 440 88.6768 439.776 88.2288 439.328C87.8181 438.88 87.6128 438.339 87.6128 437.704V413.288C87.6128 412.653 87.8181 412.131 88.2288 411.72C88.6768 411.272 89.2181 411.048 89.8528 411.048C90.5248 411.048 91.0661 411.272 91.4768 411.72C91.8874 412.131 92.0928 412.653 92.0928 413.288V417.264L90.9728 418.496C91.1594 417.525 91.5888 416.555 92.2608 415.584C92.9328 414.576 93.7728 413.68 94.7808 412.896C95.7888 412.112 96.9088 411.496 98.1408 411.048C99.3728 410.563 100.661 410.32 102.005 410.32ZM133.196 410.32C135.1 410.32 136.817 410.525 138.348 410.936C139.879 411.347 141.092 411.907 141.988 412.616C142.884 413.325 143.332 414.128 143.332 415.024C143.332 415.509 143.164 415.976 142.828 416.424C142.492 416.872 142.044 417.096 141.484 417.096C140.961 417.096 140.532 417.003 140.196 416.816C139.897 416.629 139.599 416.387 139.3 416.088C139.039 415.789 138.665 415.528 138.18 415.304C137.732 415.043 137.079 414.837 136.22 414.688C135.361 414.539 134.503 414.464 133.644 414.464C131.591 414.464 129.78 414.949 128.212 415.92C126.681 416.891 125.468 418.197 124.572 419.84C123.676 421.483 123.228 423.349 123.228 425.44C123.228 427.531 123.657 429.397 124.516 431.04C125.375 432.683 126.569 433.989 128.1 434.96C129.631 435.931 131.404 436.416 133.42 436.416C134.727 436.416 135.772 436.304 136.556 436.08C137.34 435.856 137.993 435.595 138.516 435.296C139.188 434.923 139.692 434.549 140.028 434.176C140.401 433.803 140.887 433.616 141.484 433.616C142.119 433.616 142.604 433.821 142.94 434.232C143.313 434.643 143.5 435.147 143.5 435.744C143.5 436.416 143.033 437.125 142.1 437.872C141.167 438.619 139.897 439.253 138.292 439.776C136.724 440.299 134.932 440.56 132.916 440.56C130.079 440.56 127.596 439.907 125.468 438.6C123.34 437.256 121.679 435.445 120.484 433.168C119.327 430.853 118.748 428.277 118.748 425.44C118.748 422.603 119.345 420.045 120.54 417.768C121.772 415.491 123.471 413.68 125.636 412.336C127.801 410.992 130.321 410.32 133.196 410.32ZM163.355 410.6C165.819 410.6 167.76 411.141 169.179 412.224C170.635 413.269 171.662 414.688 172.259 416.48C172.894 418.235 173.211 420.195 173.211 422.36V437.704C173.211 438.339 172.987 438.88 172.539 439.328C172.128 439.776 171.606 440 170.971 440C170.336 440 169.795 439.776 169.347 439.328C168.936 438.88 168.731 438.339 168.731 437.704V422.36C168.731 420.941 168.526 419.672 168.115 418.552C167.704 417.395 167.014 416.48 166.043 415.808C165.11 415.099 163.822 414.744 162.179 414.744C160.648 414.744 159.248 415.099 157.979 415.808C156.71 416.48 155.702 417.395 154.955 418.552C154.208 419.672 153.835 420.941 153.835 422.36V437.704C153.835 438.339 153.611 438.88 153.163 439.328C152.752 439.776 152.23 440 151.595 440C150.96 440 150.419 439.776 149.971 439.328C149.56 438.88 149.355 438.339 149.355 437.704V400.8C149.355 400.165 149.56 399.643 149.971 399.232C150.419 398.784 150.96 398.56 151.595 398.56C152.267 398.56 152.808 398.784 153.219 399.232C153.63 399.643 153.835 400.165 153.835 400.8V417.544L152.715 418.776C152.902 417.805 153.312 416.835 153.947 415.864C154.582 414.856 155.384 413.96 156.355 413.176C157.326 412.392 158.408 411.776 159.603 411.328C160.798 410.843 162.048 410.6 163.355 410.6ZM195.343 410.6C197.882 410.6 199.935 411.253 201.503 412.56C203.109 413.829 204.173 415.64 204.695 417.992H203.855L204.247 416.984C204.695 415.939 205.461 414.931 206.543 413.96C207.626 412.989 208.877 412.187 210.295 411.552C211.714 410.917 213.189 410.6 214.719 410.6C217.183 410.6 219.125 411.141 220.543 412.224C221.962 413.269 222.97 414.688 223.567 416.48C224.202 418.235 224.519 420.213 224.519 422.416V437.704C224.519 438.339 224.295 438.88 223.847 439.328C223.437 439.776 222.914 440 222.279 440C221.607 440 221.066 439.776 220.655 439.328C220.245 438.88 220.039 438.339 220.039 437.704V422.528C220.039 421.072 219.815 419.765 219.367 418.608C218.957 417.413 218.266 416.48 217.295 415.808C216.362 415.099 215.074 414.744 213.431 414.744C211.901 414.744 210.501 415.099 209.231 415.808C207.962 416.48 206.954 417.413 206.207 418.608C205.461 419.765 205.087 421.072 205.087 422.528V437.704C205.087 438.339 204.882 438.88 204.471 439.328C204.061 439.776 203.519 440 202.847 440C202.213 440 201.671 439.776 201.223 439.328C200.813 438.88 200.607 438.339 200.607 437.704V422.36C200.607 420.941 200.402 419.672 199.991 418.552C199.618 417.395 198.965 416.48 198.031 415.808C197.098 415.099 195.81 414.744 194.167 414.744C192.674 414.744 191.311 415.099 190.079 415.808C188.847 416.48 187.858 417.395 187.111 418.552C186.365 419.672 185.991 420.941 185.991 422.36V437.704C185.991 438.339 185.767 438.88 185.319 439.328C184.909 439.776 184.386 440 183.751 440C183.117 440 182.575 439.776 182.127 439.328C181.717 438.88 181.511 438.339 181.511 437.704V413.288C181.511 412.653 181.717 412.131 182.127 411.72C182.575 411.272 183.117 411.048 183.751 411.048C184.423 411.048 184.965 411.272 185.375 411.72C185.786 412.131 185.991 412.653 185.991 413.288V417.544L184.759 418.888C184.909 417.917 185.282 416.947 185.879 415.976C186.514 415.005 187.317 414.109 188.287 413.288C189.258 412.467 190.341 411.813 191.535 411.328C192.73 410.843 193.999 410.6 195.343 410.6ZM256.664 410.768C257.299 410.768 257.821 410.992 258.232 411.44C258.68 411.851 258.904 412.373 258.904 413.008V437.704C258.904 438.339 258.68 438.88 258.232 439.328C257.821 439.776 257.299 440 256.664 440C255.992 440 255.451 439.776 255.04 439.328C254.629 438.88 254.424 438.339 254.424 437.704V432.384L255.488 432.272C255.488 433.093 255.208 433.989 254.648 434.96C254.088 435.931 253.323 436.845 252.352 437.704C251.381 438.525 250.224 439.216 248.88 439.776C247.573 440.299 246.155 440.56 244.624 440.56C242.085 440.56 239.808 439.907 237.792 438.6C235.776 437.256 234.171 435.445 232.976 433.168C231.819 430.891 231.24 428.296 231.24 425.384C231.24 422.435 231.819 419.84 232.976 417.6C234.171 415.323 235.776 413.549 237.792 412.28C239.808 410.973 242.048 410.32 244.512 410.32C246.117 410.32 247.611 410.581 248.992 411.104C250.373 411.627 251.568 412.336 252.576 413.232C253.621 414.128 254.424 415.117 254.984 416.2C255.581 417.283 255.88 418.365 255.88 419.448L254.424 419.112V413.008C254.424 412.373 254.629 411.851 255.04 411.44C255.451 410.992 255.992 410.768 256.664 410.768ZM245.128 436.416C246.995 436.416 248.637 435.931 250.056 434.96C251.512 433.989 252.632 432.683 253.416 431.04C254.237 429.36 254.648 427.475 254.648 425.384C254.648 423.331 254.237 421.483 253.416 419.84C252.632 418.16 251.512 416.853 250.056 415.92C248.637 414.949 246.995 414.464 245.128 414.464C243.299 414.464 241.656 414.931 240.2 415.864C238.781 416.797 237.661 418.085 236.84 419.728C236.019 421.371 235.608 423.256 235.608 425.384C235.608 427.475 236 429.36 236.784 431.04C237.605 432.683 238.725 433.989 240.144 434.96C241.6 435.931 243.261 436.416 245.128 436.416ZM269.447 440C268.812 440 268.271 439.776 267.823 439.328C267.412 438.88 267.207 438.339 267.207 437.704V413.288C267.207 412.653 267.412 412.131 267.823 411.72C268.271 411.272 268.812 411.048 269.447 411.048C270.119 411.048 270.66 411.272 271.071 411.72C271.481 412.131 271.687 412.653 271.687 413.288V420.68L271.015 419.504C271.239 418.347 271.631 417.227 272.191 416.144C272.788 415.024 273.535 414.035 274.431 413.176C275.327 412.28 276.353 411.589 277.511 411.104C278.668 410.581 279.937 410.32 281.319 410.32C282.14 410.32 282.887 410.525 283.559 410.936C284.268 411.309 284.623 411.851 284.623 412.56C284.623 413.344 284.417 413.923 284.007 414.296C283.596 414.669 283.129 414.856 282.607 414.856C282.121 414.856 281.655 414.763 281.207 414.576C280.759 414.352 280.199 414.24 279.526 414.24C278.593 414.24 277.66 414.501 276.727 415.024C275.831 415.509 274.991 416.219 274.207 417.152C273.46 418.085 272.844 419.149 272.359 420.344C271.911 421.501 271.687 422.752 271.687 424.096V437.704C271.687 438.339 271.463 438.88 271.015 439.328C270.604 439.776 270.081 440 269.447 440ZM292.371 440C291.699 440 291.158 439.776 290.747 439.328C290.336 438.88 290.131 438.339 290.131 437.704V400.8C290.131 400.165 290.336 399.643 290.747 399.232C291.158 398.784 291.699 398.56 292.371 398.56C293.006 398.56 293.528 398.784 293.939 399.232C294.387 399.643 294.611 400.165 294.611 400.8V437.704C294.611 438.339 294.387 438.88 293.939 439.328C293.528 439.776 293.006 440 292.371 440ZM310.963 410.88C311.56 410.88 312.064 411.123 312.475 411.608C312.923 412.056 313.147 412.523 313.147 413.008C313.147 413.643 312.848 414.203 312.251 414.688L294.107 430.536L293.939 425.328L309.395 411.552C309.843 411.104 310.366 410.88 310.963 410.88ZM311.579 439.944C310.944 439.944 310.384 439.701 309.899 439.216L297.971 426.504L301.331 423.424L313.147 436.08C313.595 436.565 313.819 437.125 313.819 437.76C313.819 438.432 313.558 438.973 313.035 439.384C312.512 439.757 312.027 439.944 311.579 439.944Z" fill="#FAF7FF"/>
<rect x="145.8" y="168.3" width="40.8" height="137.7" rx="20.4" fill="url(#paint0_linear_144_601)"/>
<rect x="237.6" y="61.2" width="40.8" height="244.8" rx="20.4" fill="url(#paint1_linear_144_601)"/>
<circle cx="258" cy="20.4" r="20.4" fill="url(#paint2_linear_144_601)"/>
<circle cx="166.2" cy="127.5" r="20.4" fill="url(#paint3_linear_144_601)"/>
<circle cx="74.4" cy="51.0001" r="20.4" fill="url(#paint4_linear_144_601)"/>
<rect x="54" y="91.8" width="40.8" height="214.2" rx="20.4" fill="url(#paint5_linear_144_601)"/>
<path fill-rule="evenodd" clip-rule="evenodd" d="M162.935 131.418L71.1353 54.9181L77.6652 47.0823L169.465 123.582L162.935 131.418Z" fill="url(#paint6_linear_144_601)"/>
<path fill-rule="evenodd" clip-rule="evenodd" d="M162.328 124.181L254.128 17.0811L261.872 23.7191L170.072 130.819L162.328 124.181Z" fill="url(#paint7_linear_144_601)"/>
<defs>
<linearGradient id="paint0_linear_144_601" x1="166.2" y1="168.3" x2="166.2" y2="306" gradientUnits="userSpaceOnUse">
<stop stop-color="white"/>
<stop offset="1" stop-color="#FAF7FF"/>
</linearGradient>
<linearGradient id="paint1_linear_144_601" x1="258" y1="61.2" x2="258" y2="306" gradientUnits="userSpaceOnUse">
<stop stop-color="white"/>
<stop offset="1" stop-color="#FAF7FF"/>
</linearGradient>
<linearGradient id="paint2_linear_144_601" x1="258" y1="0" x2="258" y2="40.8" gradientUnits="userSpaceOnUse">
<stop stop-color="white"/>
<stop offset="1" stop-color="#FAF7FF"/>
</linearGradient>
<linearGradient id="paint3_linear_144_601" x1="166.2" y1="107.1" x2="166.2" y2="147.9" gradientUnits="userSpaceOnUse">
<stop stop-color="white"/>
<stop offset="1" stop-color="#FAF7FF"/>
</linearGradient>
<linearGradient id="paint4_linear_144_601" x1="74.4" y1="30.6001" x2="74.4" y2="71.4001" gradientUnits="userSpaceOnUse">
<stop stop-color="white"/>
<stop offset="1" stop-color="#FAF7FF"/>
</linearGradient>
<linearGradient id="paint5_linear_144_601" x1="74.4" y1="91.8" x2="74.4" y2="306" gradientUnits="userSpaceOnUse">
<stop stop-color="white"/>
<stop offset="1" stop-color="#FAF7FF"/>
</linearGradient>
<linearGradient id="paint6_linear_144_601" x1="120.3" y1="51.0002" x2="120.3" y2="127.5" gradientUnits="userSpaceOnUse">
<stop stop-color="#FAF7FF"/>
<stop offset="1" stop-color="#FAF7FF" stop-opacity="0"/>
</linearGradient>
<linearGradient id="paint7_linear_144_601" x1="212.1" y1="20.4001" x2="212.1" y2="127.5" gradientUnits="userSpaceOnUse">
<stop stop-color="#FAF7FF"/>
<stop offset="1" stop-color="#FAF7FF" stop-opacity="0"/>
</linearGradient>
</defs>
</svg>
