<svg width="24" height="22" viewBox="0 0 24 22" fill="none" xmlns="http://www.w3.org/2000/svg">
<path d="M10.4492 6.76085H7.62073V4.05502C7.62073 3.84358 7.44263 3.67212 7.22254 3.67212C7.00244 3.67212 6.82438 3.84358 6.82438 4.05502V6.76085H4.07842C3.85833 6.76085 3.68027 6.93227 3.68027 7.14375C3.68027 7.35523 3.85837 7.52665 4.07842 7.52665H6.82442V10.181C6.82442 10.3925 7.00253 10.5639 7.22258 10.5639C7.44263 10.5639 7.62077 10.3925 7.62077 10.181V7.52657H10.4492C10.6693 7.52657 10.8474 7.35515 10.8474 7.14367C10.8474 6.93219 10.6693 6.76085 10.4492 6.76085Z" fill="#FAF7FF"/>
<path d="M19.6072 6.76074H13.2365C13.0164 6.76074 12.8383 6.93216 12.8383 7.14364C12.8383 7.35512 13.0164 7.52654 13.2365 7.52654H19.6072C19.8273 7.52654 20.0054 7.35512 20.0054 7.14364C20.0054 6.93216 19.8273 6.76074 19.6072 6.76074Z" fill="#FAF7FF"/>
<path d="M9.73961 16.9976L7.72949 15.0647L9.73961 13.1318C9.89516 12.9822 9.89516 12.74 9.73961 12.5905C9.58407 12.4409 9.3321 12.4409 9.17655 12.5905L7.16642 14.5233L5.15629 12.5905C5.00074 12.4409 4.74877 12.4409 4.59322 12.5905C4.43768 12.74 4.43768 12.9823 4.59322 13.1318L6.60335 15.0647L4.59322 16.9976C4.43768 17.1472 4.43768 17.3895 4.59322 17.539C4.671 17.6138 4.77288 17.6512 4.87476 17.6512C4.97664 17.6512 5.07852 17.6138 5.15629 17.539L7.16642 15.6061L9.17655 17.539C9.25432 17.6138 9.3562 17.6512 9.45808 17.6512C9.55996 17.6512 9.66184 17.6138 9.73961 17.539C9.89516 17.3895 9.89516 17.1472 9.73961 16.9976Z" fill="#FAF7FF"/>
<path d="M19.6072 13.6526H13.2365C13.0164 13.6526 12.8383 13.824 12.8383 14.0355C12.8383 14.247 13.0164 14.4183 13.2365 14.4183H19.6072C19.8273 14.4183 20.0054 14.2469 20.0054 14.0355C20.0054 13.824 19.8273 13.6526 19.6072 13.6526Z" fill="#FAF7FF"/>
<path d="M19.6072 15.95H13.2365C13.0164 15.95 12.8383 16.1214 12.8383 16.3328C12.8383 16.5442 13.0164 16.7157 13.2365 16.7157H19.6072C19.8273 16.7157 20.0054 16.5443 20.0054 16.3328C20.0054 16.1213 19.8273 15.95 19.6072 15.95Z" fill="#FAF7FF"/>
<path fill-rule="evenodd" clip-rule="evenodd" d="M0.35849 3.32558C0.35849 1.48891 1.90689 0 3.81695 0H19.7791C21.6891 0 23.2375 1.48891 23.2375 3.32558V18.6744C23.2375 20.5111 21.6891 22 19.7791 22H3.81695C1.90689 22 0.35849 20.5111 0.35849 18.6744V3.32558ZM3.81695 1.53488C2.78846 1.53488 1.9547 2.33661 1.9547 3.32558V18.6744C1.9547 19.6634 2.78846 20.4651 3.81695 20.4651H19.7791C20.8075 20.4651 21.6413 19.6634 21.6413 18.6744V3.32558C21.6413 2.33661 20.8075 1.53488 19.7791 1.53488H3.81695Z" fill="#FAF7FF"/>
</svg>
