<svg width="22" height="22" viewBox="0 0 22 22" fill="none" xmlns="http://www.w3.org/2000/svg">
<path fill-rule="evenodd" clip-rule="evenodd" d="M7.83333 0.833333H2.5C1.57953 0.833333 0.833333 1.57953 0.833333 2.5V7.83333C0.833333 8.75381 1.57953 9.5 2.5 9.5H7.83333C8.75381 9.5 9.5 8.75381 9.5 7.83333V2.5C9.5 1.57953 8.75381 0.833333 7.83333 0.833333ZM2.5 0C1.11929 0 0 1.11929 0 2.5V7.83333C0 9.21404 1.11929 10.3333 2.5 10.3333H7.83333C9.21404 10.3333 10.3333 9.21404 10.3333 7.83333V2.5C10.3333 1.11929 9.21404 0 7.83333 0H2.5Z" fill="#FAF7FF"/>
<path fill-rule="evenodd" clip-rule="evenodd" d="M7.83333 12.5001H2.5C1.57953 12.5001 0.833333 13.2463 0.833333 14.1667V19.5001C0.833333 20.4206 1.57953 21.1667 2.5 21.1667H7.83333C8.75381 21.1667 9.5 20.4206 9.5 19.5001V14.1667C9.5 13.2463 8.75381 12.5001 7.83333 12.5001ZM2.5 11.6667C1.11929 11.6667 0 12.786 0 14.1667V19.5001C0 20.8808 1.11929 22.0001 2.5 22.0001H7.83333C9.21404 22.0001 10.3333 20.8808 10.3333 19.5001V14.1667C10.3333 12.786 9.21404 11.6667 7.83333 11.6667H2.5Z" fill="#FAF7FF"/>
<path fill-rule="evenodd" clip-rule="evenodd" d="M19.5001 0.833333H14.1668C13.2463 0.833333 12.5001 1.57953 12.5001 2.5V7.83333C12.5001 8.75381 13.2463 9.5 14.1668 9.5H19.5001C20.4206 9.5 21.1668 8.75381 21.1668 7.83333V2.5C21.1668 1.57953 20.4206 0.833333 19.5001 0.833333ZM14.1668 0C12.7861 0 11.6668 1.11929 11.6668 2.5V7.83333C11.6668 9.21404 12.7861 10.3333 14.1668 10.3333H19.5001C20.8808 10.3333 22.0001 9.21404 22.0001 7.83333V2.5C22.0001 1.11929 20.8808 0 19.5001 0H14.1668Z" fill="#FAF7FF"/>
<path fill-rule="evenodd" clip-rule="evenodd" d="M11.6668 18.1667V19.5001C11.6668 20.8808 12.7861 22.0001 14.1668 22.0001H15.5001V20.3334H14.1668C13.7065 20.3334 13.3334 19.9603 13.3334 19.5001V18.1667H11.6668ZM11.6668 15.5001H13.3334V14.1667C13.3334 13.7065 13.7065 13.3334 14.1668 13.3334H15.5001V11.6667H14.1668C12.7861 11.6667 11.6668 12.786 11.6668 14.1667V15.5001ZM18.1668 11.6667V13.3334H19.5001C19.9603 13.3334 20.3334 13.7065 20.3334 14.1667V15.5001H22.0001V14.1667C22.0001 12.786 20.8808 11.6667 19.5001 11.6667H18.1668ZM22.0001 18.1667H20.3334V19.5001C20.3334 19.9603 19.9603 20.3334 19.5001 20.3334H18.1668V22.0001H19.5001C20.8808 22.0001 22.0001 20.8808 22.0001 19.5001V18.1667Z" fill="#FAF7FF"/>
</svg>
