<svg width="24" height="22" viewBox="0 0 24 22" fill="none" xmlns="http://www.w3.org/2000/svg">
<path d="M15.0479 15.6875H16.6728L12.6105 6.3125H10.9855L6.9232 15.6875H8.54813L9.55559 13.3438H14.0485L15.0479 15.6875ZM10.2299 11.7812L11.7086 8.32812H11.9117L13.4229 11.7812H10.2299Z" fill="#FAF7FF"/>
<path d="M8.54814 20.375H3.67335C3.24239 20.375 2.82908 20.2104 2.52435 19.9174C2.21961 19.6243 2.04842 19.2269 2.04842 18.8125V3.1875C2.04842 2.7731 2.21961 2.37567 2.52435 2.08265C2.82908 1.78962 3.24239 1.625 3.67335 1.625H19.9227C20.3536 1.625 20.7669 1.78962 21.0717 2.08265C21.3764 2.37567 21.5476 2.7731 21.5476 3.1875V11.7812H19.9227V3.1875H3.67335V18.8125H8.54814V20.375Z" fill="#FAF7FF"/>
<path d="M17.4853 19.7344L15.381 17.7109L14.2354 18.8125L17.4853 21.9375L23.1725 16.4687L22.0269 15.3672L17.4853 19.7344Z" fill="#FAF7FF"/>
</svg>
