<svg version="1.1" id="icon" xmlns="http://www.w3.org/2000/svg" xmlns:xlink="http://www.w3.org/1999/xlink" x="0px" y="0px"
	 viewBox="-13 15 22 22" enable-background="new -13 15 22 22" xml:space="preserve">
<g>
	<path fill="#FAF7FF" d="M7.9,26.3c0.1-0.2,0.1-0.4,0-0.5c-2.1-2.9-5.8-4.7-10.1-4.7c-4.2,0-7.9,1.8-9.8,4.7c-0.1,0.1-0.1,0.3,0,0.5
		c1.9,2.9,5.5,4.7,9.8,4.7C2.1,30.9,5.9,29.2,7.9,26.3z M-2.2,30c-3.8,0-7.1-1.5-8.8-4c1.7-2.5,5-4,8.8-4c3.8,0,7.2,1.5,9.1,4
		C5,28.5,1.6,30-2.2,30z"/>
	<path fill="#FAF7FF" d="M-2,23.3c-1.6,0-2.9,1.2-2.9,2.8c0,1.5,1.3,2.8,2.9,2.8s2.9-1.2,2.9-2.8C0.9,24.5-0.4,23.3-2,23.3z
		 M-2,27.8c-1.1,0-1.9-0.8-1.9-1.8c0-1,0.9-1.8,1.9-1.8c1.1,0,1.9,0.8,1.9,1.8C-0.1,27-0.9,27.8-2,27.8z"/>
</g>
<path fill="#FAF7FF" d="M-9.7,16.5c-1,0-1.8,0.8-1.8,1.8v3.8c0,0.4-0.3,0.8-0.8,0.8c-0.4,0-0.8-0.3-0.8-0.8v-3.8
	c0-1.8,1.5-3.3,3.3-3.3h3.8c0.4,0,0.8,0.3,0.8,0.8c0,0.4-0.3,0.8-0.8,0.8H-9.7z M1.1,15.8c0-0.4,0.3-0.8,0.8-0.8h3.8
	C7.5,15,9,16.5,9,18.3v3.8c0,0.4-0.3,0.8-0.8,0.8c-0.4,0-0.8-0.3-0.8-0.8v-3.8c0-1-0.8-1.8-1.8-1.8H1.8C1.4,16.5,1.1,16.2,1.1,15.8z
	 M-12.2,29.1c0.4,0,0.8,0.3,0.8,0.8v3.8c0,1,0.8,1.8,1.8,1.8h3.8c0.4,0,0.8,0.3,0.8,0.8c0,0.4-0.3,0.8-0.8,0.8h-3.8
	c-1.8,0-3.3-1.5-3.3-3.3v-3.8C-13,29.4-12.7,29.1-12.2,29.1z M8.2,29.1c0.4,0,0.8,0.3,0.8,0.8v3.8C9,35.5,7.5,37,5.7,37H1.8
	c-0.4,0-0.8-0.3-0.8-0.8c0-0.4,0.3-0.8,0.8-0.8h3.8c1,0,1.8-0.8,1.8-1.8v-3.8C7.5,29.4,7.8,29.1,8.2,29.1z"/>
</svg>
